<?xml version="1.0" standalone="yes"?>

<svg version="1.1" viewBox="0.0 0.0 605.1706036745406 385.1732283464567" fill="none" stroke="none" stroke-linecap="square" stroke-miterlimit="10" xmlns="http://www.w3.org/2000/svg" xmlns:xlink="http://www.w3.org/1999/xlink"><clipPath id="p.0"><path d="m0 0l605.1706 0l0 385.17322l-605.1706 0l0 -385.17322z" clip-rule="nonzero"></path></clipPath><g clip-path="url(#p.0)"><path fill="#000000" fill-opacity="0.0" d="m0 0l605.1706 0l0 385.17322l-605.1706 0z" fill-rule="evenodd"></path><g filter="url(#shadowFilter-p.1)"><use xlink:href="#p.1" transform="matrix(1.0 0.0 0.0 1.0 2.8284271320333003 2.8284271320333003)"></use></g><defs><filter id="shadowFilter-p.1" filterUnits="userSpaceOnUse"><feGaussianBlur in="SourceAlpha" stdDeviation="3.0" result="blur"></feGaussianBlur><feComponentTransfer in="blur" color-interpolation-filters="sRGB"><feFuncR type="linear" slope="0" intercept="0.0"></feFuncR><feFuncG type="linear" slope="0" intercept="0.0"></feFuncG><feFuncB type="linear" slope="0" intercept="0.0"></feFuncB><feFuncA type="linear" slope="0.5" intercept="0"></feFuncA></feComponentTransfer></filter></defs><g id="p.1"><path fill="#000000" fill-opacity="0.0" d="m10.572179 13.910761l583.559 0l0 174.26772l-583.559 0z" fill-rule="evenodd"></path><path stroke="#000000" stroke-width="1.0" stroke-linejoin="round" stroke-linecap="butt" stroke-dasharray="4.0,3.0" d="m10.572179 13.910761l583.559 0l0 174.26772l-583.559 0z" fill-rule="evenodd"></path></g><path fill="#000000" fill-opacity="0.0" d="m463.96326 140.02887l-98.01575 147.2756" fill-rule="evenodd"></path><path stroke="#000000" stroke-width="3.0" stroke-linejoin="round" stroke-linecap="butt" d="m453.99048 155.01366l-88.04297 132.29082" fill-rule="evenodd"></path><path fill="#000000" stroke="#000000" stroke-width="3.0" stroke-linecap="butt" d="m458.11563 157.75905l3.4177551 -14.079132l-11.66803 8.588348z" fill-rule="evenodd"></path><g filter="url(#shadowFilter-p.2)"><use xlink:href="#p.2" transform="matrix(1.0 0.0 0.0 1.0 2.778633658341535 2.8773593852526247)"></use></g><defs><filter id="shadowFilter-p.2" filterUnits="userSpaceOnUse"><feGaussianBlur in="SourceAlpha" stdDeviation="3.0" result="blur"></feGaussianBlur><feComponentTransfer in="blur" color-interpolation-filters="sRGB"><feFuncR type="linear" slope="0" intercept="0.0"></feFuncR><feFuncG type="linear" slope="0" intercept="0.0"></feFuncG><feFuncB type="linear" slope="0" intercept="0.0"></feFuncB><feFuncA type="linear" slope="0.5" intercept="0"></feFuncA></feComponentTransfer></filter></defs><g id="p.2"><path fill="#cfe2f3" d="m391.1601 76.01338l0 0c0 -7.071129 5.7323 -12.80341 12.803406 -12.80341l119.99951 0c3.39563 0 6.6522827 1.3489265 9.053345 3.7500343c2.401123 2.4011002 3.750061 5.6576996 3.750061 9.053375l0 51.212082c0 7.071121 -5.7323 12.803406 -12.803406 12.803406l-119.99951 0c-7.071106 0 -12.803406 -5.7322845 -12.803406 -12.803406z" fill-rule="evenodd"></path><path stroke="#000000" stroke-width="1.0" stroke-linejoin="round" stroke-linecap="butt" d="m391.1601 76.01338l0 0c0 -7.071129 5.7323 -12.80341 12.803406 -12.80341l119.99951 0c3.39563 0 6.6522827 1.3489265 9.053345 3.7500343c2.401123 2.4011002 3.750061 5.6576996 3.750061 9.053375l0 51.212082c0 7.071121 -5.7323 12.803406 -12.803406 12.803406l-119.99951 0c-7.071106 0 -12.803406 -5.7322845 -12.803406 -12.803406z" fill-rule="evenodd"></path><path fill="#000000" d="m442.97263 94.25817q0 1.109375 -0.328125 2.03125q-0.3125 0.921875 -0.90625 1.578125q-0.59375 0.65625 -1.453125 1.03125q-0.859375 0.359375 -1.96875 0.359375q-1.046875 0 -1.875 -0.3125q-0.8125 -0.3125 -1.390625 -0.90625q-0.578125 -0.609375 -0.890625 -1.515625q-0.296875 -0.921875 -0.296875 -2.140625q0 -1.125 0.3125 -2.03125q0.328125 -0.921875 0.921875 -1.578125q0.59375 -0.65625 1.453125 -1.0q0.875 -0.359375 1.953125 -0.359375q1.0625 0 1.890625 0.3125q0.828125 0.296875 1.390625 0.921875q0.578125 0.609375 0.875 1.515625q0.3125 0.90625 0.3125 2.09375zm-2.359375 0.046875q0 -1.46875 -0.5625 -2.203125q-0.546875 -0.734375 -1.625 -0.734375q-0.59375 0 -1.015625 0.234375q-0.40625 0.234375 -0.671875 0.640625q-0.265625 0.390625 -0.390625 0.9375q-0.125 0.53125 -0.125 1.140625q0 1.484375 0.59375 2.234375q0.59375 0.734375 1.609375 0.734375q0.578125 0 0.984375 -0.21875q0.421875 -0.234375 0.671875 -0.625q0.265625 -0.40625 0.390625 -0.953125q0.140625 -0.546875 0.140625 -1.1875zm10.194794 -1.03125q0.015625 -0.53125 -0.0625 -0.890625q-0.0625 -0.375 -0.21875 -0.609375q-0.140625 -0.25 -0.375 -0.359375q-0.21875 -0.109375 -0.5 -0.109375q-0.5 0 -1.046875 0.421875q-0.53125 0.40625 -1.171875 1.34375l0 5.96875l-2.3125 0l0 -9.421875l2.046875 0l0.078125 1.375q0.234375 -0.375 0.53125 -0.65625q0.296875 -0.28125 0.640625 -0.484375q0.359375 -0.21875 0.796875 -0.328125q0.4375 -0.109375 0.953125 -0.109375q0.71875 0 1.265625 0.25q0.5625 0.234375 0.9375 0.71875q0.375 0.484375 0.546875 1.21875q0.1875 0.71875 0.15625 1.671875l-2.265625 0zm9.741669 -6.234375q0 0.296875 -0.125 0.578125q-0.109375 0.265625 -0.3125 0.46875q-0.1875 0.1875 -0.46875 0.3125q-0.265625 0.109375 -0.578125 0.109375q-0.3125 0 -0.59375 -0.109375q-0.265625 -0.125 -0.46875 -0.3125q-0.203125 -0.203125 -0.3125 -0.46875q-0.109375 -0.28125 -0.109375 -0.578125q0 -0.3125 0.109375 -0.578125q0.109375 -0.265625 0.3125 -0.46875q0.203125 -0.203125 0.46875 -0.3125q0.28125 -0.125 0.59375 -0.125q0.3125 0 0.578125 0.125q0.28125 0.109375 0.46875 0.3125q0.203125 0.203125 0.3125 0.46875q0.125 0.265625 0.125 0.578125zm-2.515625 4.34375l-2.65625 0l0 -1.765625l4.984375 0l0 7.65625l2.71875 0l0 1.765625l-8.03125 0l0 -1.765625l2.984375 0l0 -5.890625zm14.288544 -0.125q0.265625 0.328125 0.359375 0.6875q0.109375 0.359375 0.109375 0.734375q0 0.78125 -0.28125 1.390625q-0.265625 0.59375 -0.765625 1.015625q-0.484375 0.40625 -1.1875 0.609375q-0.6875 0.203125 -1.515625 0.203125q-0.5 0 -0.921875 -0.09375q-0.40625 -0.09375 -0.625 -0.21875q-0.15625 0.15625 -0.265625 0.34375q-0.109375 0.1875 -0.109375 0.421875q0 0.15625 0.0625 0.3125q0.078125 0.140625 0.21875 0.265625q0.15625 0.109375 0.34375 0.1875q0.203125 0.0625 0.453125 0.078125l2.234375 0.078125q0.765625 0.015625 1.359375 0.1875q0.609375 0.171875 1.046875 0.5q0.4375 0.3125 0.671875 0.765625q0.234375 0.4375 0.234375 1.015625q0 0.65625 -0.296875 1.234375q-0.296875 0.59375 -0.890625 1.015625q-0.59375 0.4375 -1.484375 0.6875q-0.890625 0.25 -2.078125 0.25q-1.140625 0 -1.96875 -0.1875q-0.8125 -0.171875 -1.34375 -0.5q-0.515625 -0.3125 -0.765625 -0.765625q-0.25 -0.453125 -0.25 -0.984375q0 -0.328125 0.078125 -0.609375q0.09375 -0.28125 0.25 -0.53125q0.171875 -0.25 0.421875 -0.484375q0.25 -0.25 0.59375 -0.5q-0.453125 -0.25 -0.6875 -0.65625q-0.234375 -0.421875 -0.234375 -0.875q0 -0.328125 0.078125 -0.59375q0.09375 -0.28125 0.21875 -0.53125q0.140625 -0.25 0.3125 -0.46875q0.171875 -0.234375 0.375 -0.46875q-0.34375 -0.34375 -0.578125 -0.828125q-0.21875 -0.484375 -0.21875 -1.21875q0 -0.78125 0.28125 -1.390625q0.28125 -0.625 0.78125 -1.046875q0.5 -0.421875 1.1875 -0.640625q0.703125 -0.21875 1.515625 -0.21875q0.421875 0 0.796875 0.046875q0.390625 0.03125 0.703125 0.140625l3.265625 0l0 1.640625l-1.484375 0zm-5.328125 9.03125q0 0.546875 0.546875 0.796875q0.546875 0.265625 1.546875 0.265625q0.640625 0 1.078125 -0.125q0.453125 -0.109375 0.71875 -0.3125q0.28125 -0.1875 0.40625 -0.453125q0.125 -0.25 0.125 -0.53125q0 -0.25 -0.125 -0.421875q-0.109375 -0.171875 -0.328125 -0.296875q-0.203125 -0.109375 -0.484375 -0.171875q-0.28125 -0.0625 -0.625 -0.078125l-2.0 -0.03125q-0.265625 0.1875 -0.4375 0.34375q-0.171875 0.171875 -0.265625 0.328125q-0.09375 0.171875 -0.125 0.328125q-0.03125 0.171875 -0.03125 0.359375zm0.375 -7.5625q0 0.75 0.4375 1.203125q0.4375 0.4375 1.234375 0.4375q0.421875 0 0.71875 -0.140625q0.3125 -0.140625 0.515625 -0.375q0.203125 -0.234375 0.296875 -0.53125q0.109375 -0.3125 0.109375 -0.640625q0 -0.796875 -0.4375 -1.234375q-0.4375 -0.4375 -1.21875 -0.4375q-0.421875 0 -0.734375 0.140625q-0.3125 0.140625 -0.515625 0.375q-0.203125 0.234375 -0.3125 0.546875q-0.09375 0.3125 -0.09375 0.65625zm13.694794 -5.6875q0 0.296875 -0.125 0.578125q-0.109375 0.265625 -0.3125 0.46875q-0.1875 0.1875 -0.46875 0.3125q-0.265625 0.109375 -0.578125 0.109375q-0.3125 0 -0.59375 -0.109375q-0.265625 -0.125 -0.46875 -0.3125q-0.203125 -0.203125 -0.3125 -0.46875q-0.109375 -0.28125 -0.109375 -0.578125q0 -0.3125 0.109375 -0.578125q0.109375 -0.265625 0.3125 -0.46875q0.203125 -0.203125 0.46875 -0.3125q0.28125 -0.125 0.59375 -0.125q0.3125 0 0.578125 0.125q0.28125 0.109375 0.46875 0.3125q0.203125 0.203125 0.3125 0.46875q0.125 0.265625 0.125 0.578125zm-2.515625 4.34375l-2.65625 0l0 -1.765625l4.984375 0l0 7.65625l2.71875 0l0 1.765625l-8.03125 0l0 -1.765625l2.984375 0l0 -5.890625zm12.835419 7.65625l0 -6.140625q0 -1.546875 -1.140625 -1.546875q-0.578125 0 -1.109375 0.46875q-0.515625 0.453125 -1.109375 1.25l0 5.96875l-2.25 0l0 -9.421875l1.953125 0l0.046875 1.390625q0.296875 -0.359375 0.609375 -0.65625q0.3125 -0.296875 0.671875 -0.5q0.359375 -0.21875 0.765625 -0.328125q0.421875 -0.109375 0.953125 -0.109375q0.71875 0 1.25 0.234375q0.546875 0.234375 0.90625 0.671875q0.359375 0.421875 0.53125 1.03125q0.1875 0.609375 0.1875 1.359375l0 6.328125l-2.265625 0z" fill-rule="nonzero"></path><path fill="#000000" d="m432.84216 121.68255l0.09375 -1.328125q0.4375 0.125 0.84375 0.125q0.4375 0 0.703125 -0.1875q0.34375 -0.265625 0.75 -0.96875l0.453125 -0.8125l-1.390625 -8.328125l1.390625 0l0.625 4.1875q0.1875 1.25 0.328125 2.484375l3.703125 -6.671875l1.484375 0l-5.296875 9.40625q-0.765625 1.375 -1.359375 1.8125q-0.59375 0.453125 -1.359375 0.453125q-0.5 0 -0.96875 -0.171875zm8.78125 -6.359375q0 -2.421875 1.4375 -4.015625q1.171875 -1.3125 3.09375 -1.3125q1.5 0 2.40625 0.9375q0.921875 0.9375 0.921875 2.53125q0 1.421875 -0.578125 2.65625q-0.578125 1.234375 -1.640625 1.890625q-1.0625 0.65625 -2.25 0.65625q-0.96875 0 -1.765625 -0.40625q-0.78125 -0.421875 -1.203125 -1.171875q-0.421875 -0.765625 -0.421875 -1.765625zm1.421875 -0.140625q0 1.171875 0.5625 1.78125q0.5625 0.609375 1.421875 0.609375q0.453125 0 0.890625 -0.1875q0.453125 -0.1875 0.828125 -0.5625q0.390625 -0.375 0.65625 -0.84375q0.28125 -0.484375 0.4375 -1.046875q0.25 -0.765625 0.25 -1.484375q0 -1.125 -0.578125 -1.734375q-0.5625 -0.625 -1.421875 -0.625q-0.65625 0 -1.203125 0.3125q-0.546875 0.3125 -1.0 0.921875q-0.4375 0.609375 -0.640625 1.421875q-0.203125 0.8125 -0.203125 1.4375zm12.8984375 1.796875q-1.5 1.6875 -3.0625 1.6875q-0.953125 0 -1.546875 -0.546875q-0.59375 -0.5625 -0.59375 -1.359375q0 -0.515625 0.265625 -1.796875l1.0 -4.78125l1.421875 0l-1.109375 5.296875q-0.140625 0.671875 -0.140625 1.03125q0 0.46875 0.28125 0.734375q0.28125 0.265625 0.84375 0.265625q0.59375 0 1.15625 -0.28125q0.5625 -0.296875 0.96875 -0.78125q0.421875 -0.5 0.671875 -1.171875q0.171875 -0.4375 0.40625 -1.515625l0.75 -3.578125l1.40625 0l-1.734375 8.296875l-1.296875 0l0.3125 -1.5zm3.2265625 1.5l1.734375 -8.296875l1.25 0l-0.34375 1.6875q0.640625 -0.953125 1.25 -1.40625q0.609375 -0.46875 1.25 -0.46875q0.421875 0 1.046875 0.296875l-0.578125 1.3125q-0.375 -0.265625 -0.8125 -0.265625q-0.734375 0 -1.515625 0.828125q-0.78125 0.828125 -1.234375 2.984375l-0.703125 3.328125l-1.34375 0zm9.9765625 0l1.5 -7.203125l-1.265625 0l0.234375 -1.09375l1.265625 0l0.234375 -1.1875q0.1875 -0.875 0.390625 -1.265625q0.203125 -0.390625 0.640625 -0.640625q0.453125 -0.265625 1.234375 -0.265625q0.53125 0 1.5625 0.234375l-0.265625 1.234375q-0.71875 -0.1875 -1.203125 -0.1875q-0.40625 0 -0.625 0.203125q-0.21875 0.203125 -0.375 0.984375l-0.1875 0.890625l1.578125 0l-0.21875 1.09375l-1.578125 0l-1.515625 7.203125l-1.40625 0zm4.4921875 -3.15625q0 -2.421875 1.4375 -4.015625q1.171875 -1.3125 3.09375 -1.3125q1.5 0 2.40625 0.9375q0.921875 0.9375 0.921875 2.53125q0 1.421875 -0.578125 2.65625q-0.578125 1.234375 -1.640625 1.890625q-1.0625 0.65625 -2.25 0.65625q-0.96875 0 -1.765625 -0.40625q-0.78125 -0.421875 -1.203125 -1.171875q-0.421875 -0.765625 -0.421875 -1.765625zm1.421875 -0.140625q0 1.171875 0.5625 1.78125q0.5625 0.609375 1.421875 0.609375q0.453125 0 0.890625 -0.1875q0.453125 -0.1875 0.828125 -0.5625q0.390625 -0.375 0.65625 -0.84375q0.28125 -0.484375 0.4375 -1.046875q0.25 -0.765625 0.25 -1.484375q0 -1.125 -0.578125 -1.734375q-0.5625 -0.625 -1.421875 -0.625q-0.65625 0 -1.203125 0.3125q-0.546875 0.3125 -1.0 0.921875q-0.4375 0.609375 -0.640625 1.421875q-0.203125 0.8125 -0.203125 1.4375zm7.2265625 3.296875l1.734375 -8.296875l1.25 0l-0.34375 1.6875q0.640625 -0.953125 1.25 -1.40625q0.609375 -0.46875 1.25 -0.46875q0.421875 0 1.046875 0.296875l-0.578125 1.3125q-0.375 -0.265625 -0.8125 -0.265625q-0.734375 0 -1.515625 0.828125q-0.78125 0.828125 -1.234375 2.984375l-0.703125 3.328125l-1.34375 0zm5.34375 0l2.40625 -11.453125l1.40625 0l-1.484375 7.09375l4.125 -3.9375l1.859375 0l-3.53125 3.09375l2.140625 5.203125l-1.546875 0l-1.65625 -4.265625l-1.71875 1.484375l-0.578125 2.78125l-1.421875 0z" fill-rule="nonzero"></path></g><path fill="#000000" fill-opacity="0.0" d="m382.17953 248.01581l101.00787 -157.22833l60.75589 39.023613l-101.00787 157.22835z" fill-rule="evenodd"></path><path fill="#000000" d="m407.38852 243.7801q0.41964722 -0.046142578 0.86376953 0.07197571q0.43096924 0.109680176 0.85165405 0.3798828q0.6179199 0.3968811 0.9739075 0.9412384q0.35601807 0.5443573 0.4623108 1.188324q0.10159302 0.6223755 -0.064331055 1.3143158q-0.16595459 0.6919403 -0.60513306 1.375534q-0.31246948 0.48638916 -0.6963501 0.85266113q-0.3838501 0.3662567 -0.7020874 0.5147095q0.13061523 0.28814697 0.2602539 0.519989q0.124938965 0.2102356 0.37472534 0.37068176q0.2892151 0.1857605 0.6637573 0.036361694q0.38302612 -0.16255188 0.7001953 -0.6273651l1.3963623 -2.0001068q0.39318848 -0.5831146 0.85028076 -0.9766388q0.45236206 -0.4151001 0.9301758 -0.6096039q0.47781372 -0.19450378 0.97262573 -0.15525818q0.4900818 0.017654419 0.97650146 0.33009338q0.5258789 0.33776855 0.8339844 0.8699341q0.3297119 0.5274811 0.38064575 1.2287292q0.050933838 0.70124817 -0.20321655 1.5593872q-0.2541504 0.8581238 -0.8959961 1.8572235q-0.6165161 0.95965576 -1.2049866 1.5287781q-0.566864 0.56440735 -1.1216431 0.82089233q-0.5332031 0.25178528 -1.0279846 0.21253967q-0.4947815 -0.039245605 -0.94177246 -0.32633972q-0.5653076 -0.36309814 -0.83026123 -0.90467834q-0.2649231 -0.5415802 -0.30462646 -1.3470306q-0.21868896 0.13807678 -0.45150757 0.21138q-0.23751831 0.051727295 -0.4675293 0.033966064q-0.2300415 -0.017745972 -0.44787598 -0.08337402q-0.2093811 -0.07878113 -0.39343262 -0.19700623q-0.51272583 -0.3293152 -0.7814026 -0.8361664q-0.26867676 -0.50683594 -0.42565918 -1.0719299q-0.27694702 0.026397705 -0.52386475 0.03492737q-0.23846436 -0.0046081543 -0.4947815 -0.039245605q-0.24789429 -0.04777527 -0.4967041 -0.15190125q-0.2619934 -0.11254883 -0.5643616 -0.3067627q-0.60476685 -0.388443 -0.96920776 -0.9196472q-0.36914062 -0.55281067 -0.4623108 -1.188324q-0.106292725 -0.6439667 0.059661865 -1.335907q0.16595459 -0.6919403 0.60510254 -1.375534q0.18579102 -0.28919983 0.39413452 -0.52679443q0.2083435 -0.23757935 0.4092102 -0.40570068l1.8241882 -2.8395233l1.1043396 0.7093048l-0.8107605 1.2620087zm4.838318 9.755875q0.55215454 0.35466003 1.1735535 -0.063323975q0.6345215 -0.4095459 1.2932434 -1.4349213q0.41384888 -0.64416504 0.57421875 -1.1539764q0.16882324 -0.5229645 0.14053345 -0.9125366q-0.006713867 -0.3942871 -0.18051147 -0.67303467q-0.16061401 -0.27030945 -0.42355347 -0.43919373q-0.47329712 -0.30400085 -0.96328735 -0.06161499q-0.4684143 0.23768616 -1.0230103 1.014267l-1.3832092 2.008545q0.0020141602 0.37269592 0.049957275 0.644928q0.06958008 0.2675171 0.18136597 0.46931458q0.11178589 0.20179749 0.24423218 0.3425598q0.14556885 0.1492157 0.3164673 0.25898743zm-6.1406555 -4.5198364q0.36810303 0.23643494 0.75964355 0.32078552q0.39996338 0.07119751 0.7670288 -0.008728027q0.36236572 -0.10151672 0.67492676 -0.32788086q0.31256104 -0.22636414 0.5574951 -0.6075897q0.2617798 -0.40753174 0.3330078 -0.80747986q0.05807495 -0.40838623 -0.030273438 -0.76226807q-0.09307861 -0.37547302 -0.32791138 -0.6748657q-0.22634888 -0.31253052 -0.5550232 -0.52363586q-0.3812561 -0.24487305 -0.7680664 -0.30763245q-0.39154053 -0.084350586 -0.7670593 0.008728027q-0.36706543 0.07992554 -0.68807983 0.31944275q-0.31256104 0.22634888 -0.54901123 0.59443665q-0.2618103 0.40753174 -0.31988525 0.81591797q-0.07122803 0.39994812 0.021850586 0.77542114q0.08834839 0.3538971 0.32788086 0.6748657q0.23480225 0.29937744 0.56347656 0.5104828zm4.9509277 -10.886505l-1.4863892 2.3137054l-1.1174622 -0.7177582l2.3731384 -3.6940155l6.704834 4.3065186l1.494812 -2.3268433l1.1306458 0.72621155l-4.0368958 6.2837677l-1.1306152 -0.7261963l1.655304 -2.5766144l-5.587372 -3.5887756zm-4.100128 -3.3020477q0.15200806 -0.23661804 0.3491211 -0.37001038q0.2055664 -0.1465149 0.4562378 -0.18978882q0.23751831 -0.051727295 0.48538208 -0.0039367676q0.24316406 0.02619934 0.4666748 0.16975403q0.22348022 0.14353943 0.36157227 0.3622284q0.1465149 0.20553589 0.19824219 0.44302368q0.051727295 0.23750305 0.017059326 0.49378967q-0.039367676 0.2347107 -0.19137573 0.471344q-0.14355469 0.22348022 -0.3491211 0.37001038q-0.21871948 0.13807678 -0.4562378 0.18978882q-0.2374878 0.051727295 -0.48538208 0.0039367676q-0.24786377 -0.047790527 -0.471344 -0.19132996q-0.22351074 -0.14355469 -0.35690308 -0.34065247q-0.1465149 -0.20553589 -0.19824219 -0.44302368q-0.06484985 -0.24594116 -0.017059326 -0.49378967q0.047821045 -0.24786377 0.19137573 -0.471344zm18.596375 -4.721863q-0.1772461 0.5361023 -0.45028687 1.0478363q-0.2598877 0.5201874 -0.5892639 1.0328827q-0.94589233 1.4723358 -2.0761719 1.7863159q-1.1349792 0.29237366 -2.5153809 -0.5942688l-4.088623 -2.6261444l-1.4103699 2.1953888l-1.1437683 -0.73464966l1.4103699 -2.1953735l-2.156067 -1.3848419l0.52334595 -1.5951843l2.5110474 1.6128387l2.2548828 -3.5099792l1.1437683 0.73464966l-2.2548828 3.5099792l3.9703064 2.5501404q0.8413696 0.54042053 1.5492249 0.36367798q0.7078247 -0.17675781 1.2652283 -1.0443878q0.24490356 -0.38124084 0.47946167 -0.861969q0.22140503 -0.48919678 0.407135 -1.0384369l1.170044 0.7515259zm7.3759155 -20.182724q1.0517578 0.6755371 1.6547546 1.4713898q0.58987427 0.78741455 0.7732239 1.6294403q0.18334961 0.8420105 -0.009765625 1.7207794q-0.19781494 0.85717773 -0.7298584 1.6853638q-0.23648071 0.36808777 -0.5208435 0.723999q-0.27590942 0.34275818 -0.612854 0.6648712l3.2735596 2.1026l-0.86987305 1.3540344l-11.030121 -7.084656l0.77697754 -1.2094269l1.3737793 0.75239563q-0.44351196 -1.1019592 -0.33676147 -1.9619293q0.10205078 -0.881546 0.6003418 -1.6571503q0.43069458 -0.67045593 1.040863 -0.9842224q0.60543823 -0.33537292 1.337738 -0.34783936q0.7322998 -0.012481689 1.565155 0.28105164q0.8328552 0.29353333 1.7136841 0.8592987zm-0.8210144 1.4225464q-0.6178894 -0.3968811 -1.1897278 -0.63417053q-0.5718384 -0.23730469 -1.0666504 -0.2765503q-0.4947815 -0.039245605 -0.899353 0.12800598q-0.40460205 0.16723633 -0.6748657 0.58792114q-0.16888428 0.26290894 -0.24578857 0.5849457q-0.090026855 0.31358337 -0.07861328 0.72946167q0.006713867 0.39427185 0.11953735 0.91244507q0.11282349 0.51815796 0.3496399 1.1902313l3.799408 2.4403687q0.40267944 -0.27990723 0.75653076 -0.62831116q0.3491211 -0.37001038 0.602478 -0.76438904q0.7094116 -1.1042633 0.3701172 -2.194992q-0.34399414 -1.1123352 -1.8427124 -2.0749664zm10.174103 -7.048828l-0.77697754 1.2094421l-1.2958679 -0.75805664q0.17953491 0.6166992 0.2529297 1.1095428q0.0602417 0.484375 0.028442383 0.9096527q-0.036468506 0.40368652 -0.1734314 0.7614136q-0.13693237 0.35772705 -0.36495972 0.712677q-0.77697754 1.2094269 -1.8838501 1.3712921q-1.106842 0.1618805 -2.5529785 -0.76698303l-5.1140747 -3.2847748l0.86987305 -1.3540344l5.0088806 3.2172241q1.801117 1.1568604 2.6794434 -0.21032715q0.16046143 -0.24977112 0.24673462 -0.5286255q0.07312012 -0.28729248 0.0579834 -0.6684265q-0.015136719 -0.38113403 -0.13171387 -0.864563q-0.121276855 -0.50502014 -0.36279297 -1.1986847l-5.1929626 -3.3354492l0.86987305 -1.3540344l7.835449 5.032715zm3.342041 -9.914276q0.42071533 0.2702179 0.6564636 0.6259308q0.24423218 0.3425598 0.33355713 0.7527771q0.09777832 0.3970642 0.07067871 0.8439331q-0.018615723 0.43371582 -0.13677979 0.8778076q-0.12283325 0.4225006 -0.31518555 0.83750916q-0.1791687 0.42344666 -0.4156494 0.7915344q-0.51516724 0.8019104 -1.0247498 1.4216919q-0.4880066 0.6150665 -1.0595703 1.157898l-1.2489624 -0.8022003q0.63638306 -0.55693054 1.1806946 -1.1729584q0.53118896 -0.6244812 0.96191406 -1.2949371q0.62493896 -0.9727936 0.6575928 -1.6017914q0.041107178 -0.6421356 -0.4453125 -0.9545746q-0.21035767 -0.13510132 -0.4319458 -0.16600037q-0.21313477 -0.044052124 -0.48443604 0.060256958q-0.28442383 0.09585571 -0.70401 0.40205383q-0.43270874 0.29776 -1.0990906 0.8725281q-0.5040283 0.4376526 -0.9883728 0.7579498q-0.48434448 0.3203125 -0.9715576 0.4716339q-0.48721313 0.15132141 -0.97354126 0.09892273q-0.48635864 -0.052383423 -0.9859314 -0.37327576q-0.32867432 -0.21110535 -0.6170349 -0.60058594q-0.2930603 -0.41107178 -0.3852539 -0.9902649q-0.10534668 -0.5876312 0.06808472 -1.3490448q0.18188477 -0.77456665 0.78152466 -1.7079315q0.29556274 -0.46009827 0.7113037 -0.99160767q0.41574097 -0.53149414 0.9225464 -1.0602112l1.2095032 0.77685547q-0.55844116 0.55126953 -1.0089111 1.0790253q-0.4420166 0.5146179 -0.7122803 0.9352875q-0.32937622 0.5126953 -0.47851562 0.91830444q-0.14068604 0.39245605 -0.13119507 0.6956787q-0.0036621094 0.2947693 0.11282349 0.51815796q0.124938965 0.21025085 0.33529663 0.34535217q0.21032715 0.13510132 0.43191528 0.16600037q0.23001099 0.01776123 0.5313721 -0.104400635q0.30133057 -0.12214661 0.72558594 -0.40675354q0.4111328 -0.29304504 1.0090027 -0.818985q0.6448059 -0.57006836 1.1723328 -0.8997803q0.52752686 -0.32969666 0.9894104 -0.44158936q0.4703064 -0.12503052 0.8965759 -0.03694153q0.42626953 0.08808899 0.8601074 0.366745zm7.7461243 -7.34552l-0.86987305 1.3540344l-5.008911 -3.2172241q-0.8939514 -0.5742035 -1.5605469 -0.519516q-0.6796875 0.04624939 -1.085083 0.67726135q-0.17733765 0.276062 -0.25048828 0.5633545q-0.07312012 0.28729248 -0.0579834 0.6684418q0.010437012 0.35954285 0.13171387 0.864563q0.121276855 0.50502014 0.33276367 1.2165375l5.1929626 3.335434l-0.86987305 1.3540497l-11.03009 -7.084671l0.8698425 -1.3540344l3.1946716 2.051941l1.2104492 0.8331909q-0.17855835 -0.5603943 -0.24725342 -1.0316315q-0.0602417 -0.48439026 -0.023773193 -0.8880768q0.031799316 -0.4252777 0.16873169 -0.78300476q0.13226318 -0.37930298 0.35183716 -0.72109985q0.75164795 -1.1699982 1.8800964 -1.3365784q1.1237488 -0.18815613 2.5567322 0.732254l5.1140747 3.2847748z" fill-rule="nonzero"></path><g filter="url(#shadowFilter-p.3)"><use xlink:href="#p.3" transform="matrix(1.0 0.0 0.0 1.0 2.8284271320333003 2.8284271320333003)"></use></g><defs><filter id="shadowFilter-p.3" filterUnits="userSpaceOnUse"><feGaussianBlur in="SourceAlpha" stdDeviation="3.0" result="blur"></feGaussianBlur><feComponentTransfer in="blur" color-interpolation-filters="sRGB"><feFuncR type="linear" slope="0" intercept="0.0"></feFuncR><feFuncG type="linear" slope="0" intercept="0.0"></feFuncG><feFuncB type="linear" slope="0" intercept="0.0"></feFuncB><feFuncA type="linear" slope="0.5" intercept="0"></feFuncA></feComponentTransfer></filter></defs><g id="p.3"><path fill="#cfe2f3" d="m51.84777 76.01338l0 0c0 -7.071129 5.732277 -12.80341 12.803406 -12.80341l119.99949 0c3.3956757 0 6.6522675 1.3489265 9.053375 3.7500343c2.4011078 2.4011002 3.7500305 5.6576996 3.7500305 9.053375l0 51.212082c0 7.071121 -5.7322845 12.803406 -12.803406 12.803406l-119.99949 0c-7.071129 0 -12.803406 -5.7322845 -12.803406 -12.803406z" fill-rule="evenodd"></path><path stroke="#000000" stroke-width="1.0" stroke-linejoin="round" stroke-linecap="butt" d="m51.84777 76.01338l0 0c0 -7.071129 5.732277 -12.80341 12.803406 -12.80341l119.99949 0c3.3956757 0 6.6522675 1.3489265 9.053375 3.7500343c2.4011078 2.4011002 3.7500305 5.6576996 3.7500305 9.053375l0 51.212082c0 7.071121 -5.7322845 12.803406 -12.803406 12.803406l-119.99949 0c-7.071129 0 -12.803406 -5.7322845 -12.803406 -12.803406z" fill-rule="evenodd"></path><path fill="#000000" d="m87.15299 89.617546l0 6.140625q0 0.765625 0.28125 1.171875q0.296875 0.390625 0.875 0.390625q0.578125 0 1.09375 -0.46875q0.53125 -0.46875 1.109375 -1.265625l0 -5.96875l2.265625 0l0 9.421875l-1.953125 0l-0.0625 -1.390625q-0.296875 0.359375 -0.609375 0.65625q-0.296875 0.296875 -0.65625 0.515625q-0.359375 0.203125 -0.78125 0.3125q-0.421875 0.125 -0.921875 0.125q-0.734375 0 -1.28125 -0.234375q-0.53125 -0.25 -0.890625 -0.671875q-0.359375 -0.4375 -0.546875 -1.046875q-0.1875 -0.609375 -0.1875 -1.359375l0 -6.328125l2.265625 0zm16.491669 4.546875q0 1.296875 -0.375 2.25q-0.359375 0.9375 -1.015625 1.5625q-0.640625 0.625 -1.53125 0.9375q-0.890625 0.296875 -1.9375 0.296875q-0.359375 0 -0.71875 -0.046875q-0.34375 -0.046875 -0.640625 -0.125l0 3.6875l-2.25 0l0 -13.109375l1.953125 0l0.046875 1.390625q0.296875 -0.359375 0.609375 -0.65625q0.3125 -0.296875 0.671875 -0.5q0.359375 -0.21875 0.765625 -0.328125q0.421875 -0.109375 0.953125 -0.109375q0.828125 0 1.46875 0.328125q0.65625 0.328125 1.09375 0.953125q0.453125 0.609375 0.671875 1.5q0.234375 0.875 0.234375 1.96875zm-2.375 0.09375q0 -0.78125 -0.109375 -1.328125q-0.109375 -0.546875 -0.328125 -0.890625q-0.203125 -0.359375 -0.5 -0.515625q-0.296875 -0.171875 -0.6875 -0.171875q-0.578125 0 -1.109375 0.46875q-0.515625 0.453125 -1.109375 1.25l0 4.125q0.28125 0.09375 0.671875 0.171875q0.390625 0.0625 0.796875 0.0625q0.546875 0 0.984375 -0.21875q0.4375 -0.234375 0.75 -0.640625q0.3125 -0.40625 0.46875 -0.984375q0.171875 -0.59375 0.171875 -1.328125zm11.929169 2.0q0 0.8125 -0.359375 1.390625q-0.359375 0.5625 -0.953125 0.921875q-0.578125 0.359375 -1.328125 0.515625q-0.75 0.171875 -1.515625 0.171875q-1.046875 0 -1.890625 -0.109375q-0.828125 -0.09375 -1.5625 -0.28125l0 -2.03125q0.859375 0.359375 1.71875 0.53125q0.875 0.15625 1.65625 0.15625q0.890625 0 1.328125 -0.28125q0.4375 -0.296875 0.4375 -0.75q0 -0.203125 -0.09375 -0.375q-0.09375 -0.1875 -0.34375 -0.34375q-0.25 -0.171875 -0.71875 -0.34375q-0.46875 -0.171875 -1.21875 -0.375q-0.6875 -0.203125 -1.21875 -0.4375q-0.515625 -0.25 -0.859375 -0.578125q-0.34375 -0.34375 -0.515625 -0.78125q-0.171875 -0.4375 -0.171875 -1.03125q0 -0.578125 0.25 -1.09375q0.265625 -0.515625 0.78125 -0.890625q0.515625 -0.390625 1.28125 -0.609375q0.765625 -0.21875 1.796875 -0.21875q0.890625 0 1.578125 0.09375q0.6875 0.09375 1.21875 0.203125l0 1.84375q-0.8125 -0.265625 -1.53125 -0.359375q-0.703125 -0.109375 -1.390625 -0.109375q-0.703125 0 -1.125 0.25q-0.421875 0.25 -0.421875 0.6875q0 0.21875 0.078125 0.390625q0.09375 0.15625 0.34375 0.3125q0.25 0.15625 0.6875 0.328125q0.4375 0.171875 1.15625 0.375q0.828125 0.234375 1.375 0.5q0.5625 0.265625 0.890625 0.609375q0.34375 0.328125 0.484375 0.75q0.15625 0.421875 0.15625 0.96875zm10.257294 2.6875q-0.609375 0.140625 -1.234375 0.21875q-0.625 0.09375 -1.171875 0.09375q-0.9375 0 -1.609375 -0.203125q-0.671875 -0.1875 -1.109375 -0.578125q-0.4375 -0.40625 -0.65625 -1.015625q-0.203125 -0.625 -0.203125 -1.484375l0 -4.59375l-2.53125 0l0 -1.765625l2.53125 0l0 -2.421875l2.328125 -0.59375l0 3.015625l3.65625 0l0 1.765625l-3.65625 0l0 4.421875q0 0.8125 0.359375 1.234375q0.375 0.40625 1.25 0.40625q0.5625 0 1.078125 -0.09375q0.53125 -0.09375 0.96875 -0.21875l0 1.8125zm8.554176 -5.671875q0.015625 -0.53125 -0.0625 -0.890625q-0.0625 -0.375 -0.21875 -0.609375q-0.140625 -0.25 -0.375 -0.359375q-0.21875 -0.109375 -0.5 -0.109375q-0.5 0 -1.046875 0.421875q-0.53125 0.40625 -1.171875 1.34375l0 5.96875l-2.3125076 0l0 -9.421875l2.0468826 0l0.078125 1.375q0.234375 -0.375 0.53125 -0.65625q0.296875 -0.28125 0.640625 -0.484375q0.359375 -0.21875 0.796875 -0.328125q0.4375 -0.109375 0.953125 -0.109375q0.71875 0 1.265625 0.25q0.5625 0.234375 0.9375 0.71875q0.375 0.484375 0.546875 1.21875q0.1875 0.71875 0.15625 1.671875l-2.265625 0zm12.397919 0.328125q0 0.234375 -0.015625 0.609375q-0.015625 0.359375 -0.046875 0.6875l-6.1875 0q0 0.625 0.1875 1.109375q0.1875 0.46875 0.53125 0.78125q0.359375 0.3125 0.84375 0.484375q0.484375 0.171875 1.078125 0.171875q0.6875 0 1.46875 -0.109375q0.78125 -0.109375 1.625 -0.34375l0 1.796875q-0.359375 0.09375 -0.78125 0.1875q-0.421875 0.078125 -0.875 0.140625q-0.4375 0.078125 -0.90625 0.109375q-0.453125 0.03125 -0.875 0.03125q-1.078125 0 -1.9375 -0.3125q-0.84375 -0.3125 -1.4375 -0.90625q-0.59375 -0.59375 -0.90625 -1.46875q-0.3125 -0.890625 -0.3125 -2.046875q0 -1.15625 0.3125 -2.09375q0.3125 -0.9375 0.890625 -1.609375q0.578125 -0.671875 1.390625 -1.03125q0.828125 -0.375 1.828125 -0.375q1.015625 0 1.78125 0.3125q0.765625 0.296875 1.28125 0.859375q0.53125 0.5625 0.796875 1.328125q0.265625 0.765625 0.265625 1.6875zm-2.296875 -0.328125q0 -0.546875 -0.15625 -0.953125q-0.140625 -0.421875 -0.390625 -0.6875q-0.25 -0.28125 -0.59375 -0.40625q-0.34375 -0.125 -0.734375 -0.125q-0.84375 0 -1.390625 0.578125q-0.546875 0.5625 -0.65625 1.59375l3.921875 0zm10.257294 5.765625l-0.0625 -1.234375q-0.296875 0.3125 -0.625 0.578125q-0.3125 0.265625 -0.703125 0.46875q-0.390625 0.1875 -0.859375 0.296875q-0.453125 0.109375 -1.0 0.109375q-0.71875 0 -1.265625 -0.21875q-0.546875 -0.21875 -0.921875 -0.59375q-0.375 -0.375 -0.5625 -0.90625q-0.1875 -0.546875 -0.1875 -1.203125q0 -0.671875 0.28125 -1.234375q0.28125 -0.5625 0.859375 -0.96875q0.578125 -0.40625 1.4375 -0.640625q0.875 -0.234375 2.046875 -0.234375l1.234375 0l0 -0.5625q0 -0.359375 -0.109375 -0.65625q-0.09375 -0.296875 -0.328125 -0.5q-0.21875 -0.203125 -0.578125 -0.3125q-0.359375 -0.109375 -0.890625 -0.109375q-0.84375 0 -1.65625 0.1875q-0.8125 0.1875 -1.5625 0.53125l0 -1.8125q0.671875 -0.265625 1.546875 -0.4375q0.890625 -0.171875 1.859375 -0.171875q1.046875 0 1.796875 0.203125q0.75 0.1875 1.234375 0.59375q0.484375 0.390625 0.71875 1.0q0.234375 0.59375 0.234375 1.390625l0 6.4375l-1.9375 0zm-0.328125 -4.171875l-1.375 0q-0.578125 0 -0.984375 0.125q-0.390625 0.109375 -0.640625 0.3125q-0.25 0.1875 -0.375 0.4375q-0.109375 0.25 -0.109375 0.546875q0 0.5625 0.359375 0.875q0.375 0.296875 1.015625 0.296875q0.46875 0 0.984375 -0.34375q0.515625 -0.34375 1.125 -0.984375l0 -1.265625zm11.319794 4.171875l0 -6.421875q0 -0.34375 -0.015625 -0.609375q-0.015625 -0.265625 -0.078125 -0.4375q-0.046875 -0.1875 -0.15625 -0.265625q-0.109375 -0.09375 -0.296875 -0.09375q-0.28125 0 -0.5625 0.390625q-0.28125 0.390625 -0.625 1.328125l0 6.109375l-1.9375 0l0 -6.421875q0 -0.34375 -0.03125 -0.609375q-0.015625 -0.265625 -0.078125 -0.4375q-0.046875 -0.1875 -0.15625 -0.265625q-0.109375 -0.09375 -0.296875 -0.09375q-0.25 0 -0.546875 0.390625q-0.296875 0.390625 -0.65625 1.328125l0 6.109375l-1.953125 0l0 -9.421875l1.6875 0l0.03125 1.375q0.203125 -0.421875 0.40625 -0.71875q0.203125 -0.296875 0.4375 -0.484375q0.234375 -0.1875 0.5 -0.265625q0.265625 -0.09375 0.59375 -0.09375q0.78125 0 1.1875 0.421875q0.421875 0.40625 0.484375 1.140625q0.21875 -0.421875 0.4375 -0.71875q0.21875 -0.296875 0.453125 -0.484375q0.234375 -0.1875 0.5 -0.265625q0.28125 -0.09375 0.625 -0.09375q1.03125 0 1.515625 0.71875q0.5 0.71875 0.5 2.125l0 6.765625l-1.96875 0z" fill-rule="nonzero"></path><path fill="#000000" d="m99.6392 115.32317q0 -2.421875 1.4375 -4.015625q1.171875 -1.3125 3.09375 -1.3125q1.5 0 2.40625 0.9375q0.921875 0.9375 0.921875 2.53125q0 1.421875 -0.578125 2.65625q-0.578125 1.234375 -1.640625 1.890625q-1.0625 0.65625 -2.25 0.65625q-0.96875 0 -1.765625 -0.40625q-0.78125 -0.421875 -1.203125 -1.171875q-0.421875 -0.765625 -0.421875 -1.765625zm1.421875 -0.140625q0 1.171875 0.5625 1.78125q0.5625 0.609375 1.421875 0.609375q0.453125 0 0.890625 -0.1875q0.453125 -0.1875 0.828125 -0.5625q0.390625 -0.375 0.65625 -0.84375q0.28125 -0.484375 0.4375 -1.046875q0.25 -0.765625 0.25 -1.484375q0 -1.125 -0.578125 -1.734375q-0.5625 -0.625 -1.421875 -0.625q-0.65625 0 -1.203125 0.3125q-0.546875 0.3125 -1.0 0.921875q-0.4375 0.609375 -0.640625 1.421875q-0.203125 0.8125 -0.203125 1.4375zm7.2265625 3.296875l1.734375 -8.296875l1.25 0l-0.34375 1.6875q0.640625 -0.953125 1.25 -1.40625q0.609375 -0.46875 1.25 -0.46875q0.421875 0 1.046875 0.296875l-0.578125 1.3125q-0.375 -0.265625 -0.8125 -0.265625q-0.734375 0 -1.515625 0.828125q-0.78125 0.828125 -1.234375 2.984375l-0.703125 3.328125l-1.34375 0zm7.34375 -9.859375l0.328125 -1.59375l1.40625 0l-0.328125 1.59375l-1.40625 0zm-2.0625 9.859375l1.734375 -8.296875l1.40625 0l-1.734375 8.296875l-1.40625 0zm3.5234375 0.75l1.4375 0.140625q-0.015625 0.484375 0.109375 0.71875q0.140625 0.25 0.421875 0.375q0.390625 0.171875 1.0 0.171875q1.28125 0 1.84375 -0.65625q0.359375 -0.453125 0.671875 -1.953125l0.140625 -0.671875q-1.09375 1.125 -2.34375 1.125q-1.25 0 -2.109375 -0.921875q-0.84375 -0.9375 -0.84375 -2.625q0 -1.40625 0.671875 -2.578125q0.671875 -1.171875 1.59375 -1.765625q0.921875 -0.59375 1.890625 -0.59375q1.640625 0 2.515625 1.546875l0.28125 -1.359375l1.296875 0l-1.671875 8.0q-0.265625 1.328125 -0.71875 2.0625q-0.4375 0.75 -1.234375 1.15625q-0.796875 0.40625 -1.828125 0.40625q-1.0 0 -1.734375 -0.265625q-0.71875 -0.25 -1.078125 -0.75q-0.34375 -0.5 -0.34375 -1.140625q0 -0.1875 0.03125 -0.421875zm1.765625 -4.421875q0 0.84375 0.171875 1.28125q0.234375 0.59375 0.65625 0.921875q0.4375 0.3125 0.96875 0.3125q0.703125 0 1.390625 -0.484375q0.6875 -0.5 1.109375 -1.515625q0.421875 -1.03125 0.421875 -1.953125q0 -1.03125 -0.5625 -1.625q-0.5625 -0.609375 -1.40625 -0.609375q-0.515625 0 -1.0 0.28125q-0.484375 0.265625 -0.90625 0.84375q-0.40625 0.5625 -0.625 1.359375q-0.21875 0.78125 -0.21875 1.1875zm9.22657 -6.1875l0.328125 -1.59375l1.40625 0l-0.328125 1.59375l-1.40625 0zm-2.0625076 9.859375l1.734375 -8.296875l1.4062576 0l-1.7343826 8.296875l-1.40625 0zm3.6015701 0l1.734375 -8.296875l1.28125 0l-0.296875 1.4375q0.828125 -0.84375 1.546875 -1.234375q0.734375 -0.390625 1.5 -0.390625q1.0 0 1.578125 0.546875q0.578125 0.546875 0.578125 1.453125q0 0.46875 -0.203125 1.453125l-1.0625 5.03125l-1.40625 0l1.09375 -5.265625q0.171875 -0.765625 0.171875 -1.125q0 -0.421875 -0.296875 -0.671875q-0.28125 -0.265625 -0.8125 -0.265625q-1.09375 0 -1.9375 0.78125q-0.84375 0.78125 -1.25 2.6875l-0.796875 3.859375l-1.421875 0zm14.4921875 -1.03125q-0.734375 0.625 -1.421875 0.921875q-0.671875 0.296875 -1.4375 0.296875q-1.15625 0 -1.859375 -0.671875q-0.703125 -0.6875 -0.703125 -1.734375q0 -0.703125 0.3125 -1.234375q0.328125 -0.53125 0.84375 -0.859375q0.53125 -0.328125 1.28125 -0.46875q0.484375 -0.09375 1.8125 -0.140625q1.328125 -0.0625 1.90625 -0.28125q0.171875 -0.578125 0.171875 -0.96875q0 -0.484375 -0.359375 -0.765625q-0.5 -0.390625 -1.4375 -0.390625q-0.890625 0 -1.46875 0.390625q-0.5625 0.390625 -0.8125 1.125l-1.4375 -0.125q0.4375 -1.234375 1.390625 -1.890625q0.953125 -0.65625 2.390625 -0.65625q1.546875 0 2.4375 0.734375q0.6875 0.546875 0.6875 1.421875q0 0.65625 -0.1875 1.53125l-0.46875 2.0625q-0.21875 0.984375 -0.21875 1.609375q0 0.390625 0.171875 1.125l-1.421875 0q-0.125 -0.40625 -0.171875 -1.03125zm0.53125 -3.171875q-0.296875 0.109375 -0.640625 0.171875q-0.34375 0.0625 -1.140625 0.140625q-1.234375 0.109375 -1.75 0.28125q-0.5 0.15625 -0.765625 0.53125q-0.25 0.359375 -0.25 0.8125q0 0.59375 0.40625 0.984375q0.421875 0.375 1.171875 0.375q0.703125 0 1.34375 -0.375q0.65625 -0.375 1.03125 -1.03125q0.375 -0.671875 0.59375 -1.890625zm2.6640625 4.203125l2.390625 -11.453125l1.421875 0l-2.390625 11.453125l-1.421875 0z" fill-rule="nonzero"></path></g><g filter="url(#shadowFilter-p.4)"><use xlink:href="#p.4" transform="matrix(1.0 0.0 0.0 1.0 2.8284271320333003 2.8284271320333003)"></use></g><defs><filter id="shadowFilter-p.4" filterUnits="userSpaceOnUse"><feGaussianBlur in="SourceAlpha" stdDeviation="3.0" result="blur"></feGaussianBlur><feComponentTransfer in="blur" color-interpolation-filters="sRGB"><feFuncR type="linear" slope="0" intercept="0.0"></feFuncR><feFuncG type="linear" slope="0" intercept="0.0"></feFuncG><feFuncB type="linear" slope="0" intercept="0.0"></feFuncB><feFuncA type="linear" slope="0.5" intercept="0"></feFuncA></feComponentTransfer></filter></defs><g id="p.4"><path fill="#cfe2f3" d="m220.3307 261.69318l0 0c0 -7.0711365 5.7322845 -12.803406 12.803406 -12.803406l119.9995 0c3.3956604 0 6.652252 1.3489227 9.053375 3.7500305c2.4010925 2.4010925 3.7500305 5.6576843 3.7500305 9.053375l0 51.212067c0 7.0711365 -5.7322693 12.803406 -12.803406 12.803406l-119.9995 0c-7.071121 0 -12.803406 -5.7322693 -12.803406 -12.803406z" fill-rule="evenodd"></path><path stroke="#000000" stroke-width="1.0" stroke-linejoin="round" stroke-linecap="butt" d="m220.3307 261.69318l0 0c0 -7.0711365 5.7322845 -12.803406 12.803406 -12.803406l119.9995 0c3.3956604 0 6.652252 1.3489227 9.053375 3.7500305c2.4010925 2.4010925 3.7500305 5.6576843 3.7500305 9.053375l0 51.212067c0 7.0711365 -5.7322693 12.803406 -12.803406 12.803406l-119.9995 0c-7.071121 0 -12.803406 -5.7322693 -12.803406 -12.803406z" fill-rule="evenodd"></path><path fill="#000000" d="m271.81876 273.37546l-2.65625 0l0 -1.765625l4.984375 0l0 11.34375l2.71875 0l0 1.765625l-8.03125 0l0 -1.765625l2.984375 0l0 -9.578125zm15.710419 6.5625q0 1.109375 -0.328125 2.03125q-0.3125 0.921875 -0.90625 1.578125q-0.59375 0.65625 -1.453125 1.03125q-0.859375 0.359375 -1.96875 0.359375q-1.046875 0 -1.875 -0.3125q-0.8125 -0.3125 -1.390625 -0.90625q-0.578125 -0.609375 -0.890625 -1.515625q-0.296875 -0.921875 -0.296875 -2.140625q0 -1.125 0.3125 -2.03125q0.328125 -0.921875 0.921875 -1.578125q0.59375 -0.65625 1.453125 -1.0q0.875 -0.359375 1.953125 -0.359375q1.0625 0 1.890625 0.3125q0.828125 0.296875 1.390625 0.921875q0.578125 0.609375 0.875 1.515625q0.3125 0.90625 0.3125 2.09375zm-2.359375 0.046875q0 -1.46875 -0.5625 -2.203125q-0.546875 -0.734375 -1.625 -0.734375q-0.59375 0 -1.015625 0.234375q-0.40625 0.234375 -0.671875 0.640625q-0.265625 0.390625 -0.390625 0.9375q-0.125 0.53125 -0.125 1.140625q0 1.484375 0.59375 2.234375q0.59375 0.734375 1.609375 0.734375q0.578125 0 0.984375 -0.21875q0.421875 -0.234375 0.671875 -0.625q0.265625 -0.40625 0.390625 -0.953125q0.140625 -0.546875 0.140625 -1.1875zm11.757294 4.375q-0.671875 0.265625 -1.390625 0.390625q-0.71875 0.140625 -1.484375 0.140625q-1.125 0 -2.015625 -0.3125q-0.890625 -0.3125 -1.515625 -0.90625q-0.625 -0.609375 -0.953125 -1.5q-0.328125 -0.890625 -0.328125 -2.0625q0 -1.125 0.359375 -2.046875q0.359375 -0.921875 1.0 -1.5625q0.65625 -0.65625 1.5625 -1.0q0.921875 -0.359375 2.046875 -0.359375q0.90625 0 1.53125 0.109375q0.640625 0.09375 1.140625 0.234375l0 2.203125q-0.578125 -0.28125 -1.25 -0.4375q-0.671875 -0.171875 -1.28125 -0.171875q-0.625 0 -1.125 0.21875q-0.5 0.21875 -0.84375 0.59375q-0.34375 0.375 -0.53125 0.921875q-0.171875 0.546875 -0.171875 1.1875q0 0.6875 0.1875 1.234375q0.1875 0.53125 0.546875 0.90625q0.359375 0.375 0.859375 0.578125q0.5 0.1875 1.125 0.1875q0.296875 0 0.625 -0.03125q0.328125 -0.046875 0.65625 -0.125q0.328125 -0.078125 0.640625 -0.171875q0.328125 -0.109375 0.609375 -0.234375l0 2.015625zm8.538544 0.359375l-0.0625 -1.234375q-0.296875 0.3125 -0.625 0.578125q-0.3125 0.265625 -0.703125 0.46875q-0.390625 0.1875 -0.859375 0.296875q-0.453125 0.109375 -1.0 0.109375q-0.71875 0 -1.265625 -0.21875q-0.546875 -0.21875 -0.921875 -0.59375q-0.375 -0.375 -0.5625 -0.90625q-0.1875 -0.546875 -0.1875 -1.203125q0 -0.671875 0.28125 -1.234375q0.28125 -0.5625 0.859375 -0.96875q0.578125 -0.40625 1.4375 -0.640625q0.875 -0.234375 2.046875 -0.234375l1.234375 0l0 -0.5625q0 -0.359375 -0.109375 -0.65625q-0.09375 -0.296875 -0.328125 -0.5q-0.21875 -0.203125 -0.578125 -0.3125q-0.359375 -0.109375 -0.890625 -0.109375q-0.84375 0 -1.65625 0.1875q-0.8125 0.1875 -1.5625 0.53125l0 -1.8125q0.671875 -0.265625 1.546875 -0.4375q0.890625 -0.171875 1.859375 -0.171875q1.046875 0 1.796875 0.203125q0.75 0.1875 1.234375 0.59375q0.484375 0.390625 0.71875 1.0q0.234375 0.59375 0.234375 1.390625l0 6.4375l-1.9375 0zm-0.328125 -4.171875l-1.375 0q-0.578125 0 -0.984375 0.125q-0.390625 0.109375 -0.640625 0.3125q-0.25 0.1875 -0.375 0.4375q-0.109375 0.25 -0.109375 0.546875q0 0.5625 0.359375 0.875q0.375 0.296875 1.015625 0.296875q0.46875 0 0.984375 -0.34375q0.515625 -0.34375 1.125 -0.984375l0 -1.265625zm7.7104187 -7.171875l-2.65625 0l0 -1.765625l4.984375 0l0 11.34375l2.71875 0l0 1.765625l-8.03125 0l0 -1.765625l2.984375 0l0 -9.578125z" fill-rule="nonzero"></path><path fill="#000000" d="m242.00105 307.36234l0.09375 -1.328125q0.4375 0.125 0.84375 0.125q0.4375 0 0.703125 -0.1875q0.34375 -0.265625 0.75 -0.96875l0.453125 -0.8125l-1.390625 -8.328125l1.390625 0l0.625 4.1875q0.1875 1.25 0.328125 2.484375l3.703125 -6.671875l1.484375 0l-5.296875 9.40625q-0.765625 1.375 -1.359375 1.8125q-0.59375 0.453125 -1.359375 0.453125q-0.5 0 -0.96875 -0.171875zm8.78125 -6.359375q0 -2.421875 1.4375 -4.015625q1.171875 -1.3125 3.09375 -1.3125q1.4999847 0 2.4062347 0.9375q0.921875 0.9375 0.921875 2.53125q0 1.421875 -0.578125 2.65625q-0.578125 1.234375 -1.640625 1.890625q-1.0624847 0.65625 -2.2499847 0.65625q-0.96875 0 -1.765625 -0.40625q-0.78125 -0.421875 -1.203125 -1.171875q-0.421875 -0.765625 -0.421875 -1.765625zm1.421875 -0.140625q0 1.171875 0.5625 1.78125q0.5625 0.609375 1.421875 0.609375q0.453125 0 0.890625 -0.1875q0.453125 -0.1875 0.828125 -0.5625q0.39060974 -0.375 0.65623474 -0.84375q0.28125 -0.484375 0.4375 -1.046875q0.25 -0.765625 0.25 -1.484375q0 -1.125 -0.578125 -1.734375q-0.5625 -0.625 -1.4218597 -0.625q-0.65625 0 -1.203125 0.3125q-0.546875 0.3125 -1.0 0.921875q-0.4375 0.609375 -0.640625 1.421875q-0.203125 0.8125 -0.203125 1.4375zm12.898422 1.796875q-1.5 1.6875 -3.0625 1.6875q-0.953125 0 -1.546875 -0.546875q-0.59375 -0.5625 -0.59375 -1.359375q0 -0.515625 0.265625 -1.796875l1.0 -4.78125l1.421875 0l-1.109375 5.296875q-0.140625 0.671875 -0.140625 1.03125q0 0.46875 0.28125 0.734375q0.28125 0.265625 0.84375 0.265625q0.59375 0 1.15625 -0.28125q0.5625 -0.296875 0.96875 -0.78125q0.421875 -0.5 0.671875 -1.171875q0.171875 -0.4375 0.40625 -1.515625l0.75 -3.578125l1.40625 0l-1.734375 8.296875l-1.296875 0l0.3125 -1.5zm3.2265625 1.5l1.734375 -8.296875l1.25 0l-0.34375 1.6875q0.640625 -0.953125 1.25 -1.40625q0.609375 -0.46875 1.25 -0.46875q0.421875 0 1.046875 0.296875l-0.578125 1.3125q-0.375 -0.265625 -0.8125 -0.265625q-0.734375 0 -1.515625 0.828125q-0.78125 0.828125 -1.234375 2.984375l-0.703125 3.328125l-1.34375 0zm15.5078125 -3.03125l1.40625 0.15625q-0.53125 1.546875 -1.515625 2.3125q-0.96875 0.75 -2.21875 0.75q-1.359375 0 -2.203125 -0.875q-0.828125 -0.875 -0.828125 -2.453125q0 -1.359375 0.53125 -2.671875q0.546875 -1.3125 1.546875 -1.984375q1.0 -0.6875 2.296875 -0.6875q1.328125 0 2.109375 0.75q0.78125 0.75 0.78125 2.0l-1.390625 0.09375q0 -0.796875 -0.453125 -1.234375q-0.453125 -0.453125 -1.1875 -0.453125q-0.84375 0 -1.46875 0.546875q-0.625 0.53125 -0.984375 1.640625q-0.359375 1.09375 -0.359375 2.109375q0 1.0625 0.46875 1.59375q0.46875 0.53125 1.15625 0.53125q0.6875 0 1.3125 -0.515625q0.640625 -0.53125 1.0 -1.609375zm2.515625 -0.125q0 -2.421875 1.4375 -4.015625q1.171875 -1.3125 3.09375 -1.3125q1.5 0 2.40625 0.9375q0.921875 0.9375 0.921875 2.53125q0 1.421875 -0.578125 2.65625q-0.578125 1.234375 -1.640625 1.890625q-1.0625 0.65625 -2.25 0.65625q-0.96875 0 -1.765625 -0.40625q-0.78125 -0.421875 -1.203125 -1.171875q-0.421875 -0.765625 -0.421875 -1.765625zm1.421875 -0.140625q0 1.171875 0.5625 1.78125q0.5625 0.609375 1.421875 0.609375q0.453125 0 0.890625 -0.1875q0.453125 -0.1875 0.828125 -0.5625q0.390625 -0.375 0.65625 -0.84375q0.28125 -0.484375 0.4375 -1.046875q0.25 -0.765625 0.25 -1.484375q0 -1.125 -0.578125 -1.734375q-0.5625 -0.625 -1.421875 -0.625q-0.65625 0 -1.203125 0.3125q-0.546875 0.3125 -1.0 0.921875q-0.4375 0.609375 -0.640625 1.421875q-0.203125 0.8125 -0.203125 1.4375zm7.2265625 3.296875l1.734375 -8.296875l1.40625 0l-0.28125 1.359375q0.78125 -0.875 1.40625 -1.203125q0.625 -0.34375 1.34375 -0.34375q0.78125 0 1.296875 0.40625q0.515625 0.40625 0.6875 1.140625q0.625 -0.78125 1.328125 -1.15625q0.703125 -0.390625 1.46875 -0.390625q1.046875 0 1.5625 0.5q0.515625 0.484375 0.515625 1.375q0 0.375 -0.171875 1.265625l-1.125 5.34375l-1.40625 0l1.140625 -5.484375q0.140625 -0.671875 0.140625 -0.96875q0 -0.40625 -0.265625 -0.640625q-0.25 -0.234375 -0.71875 -0.234375q-0.625 0 -1.28125 0.390625q-0.65625 0.375 -1.03125 1.0q-0.359375 0.625 -0.625 1.90625l-0.84375 4.03125l-1.421875 0l1.171875 -5.609375q0.125 -0.5625 0.125 -0.8125q0 -0.40625 -0.25 -0.65625q-0.25 -0.25 -0.65625 -0.25q-0.609375 0 -1.265625 0.390625q-0.65625 0.375 -1.078125 1.0625q-0.40625 0.6875 -0.671875 1.953125l-0.828125 3.921875l-1.40625 0zm12.625 3.1875l2.40625 -11.484375l1.3125 0l-0.25 1.15625q0.734375 -0.765625 1.296875 -1.046875q0.578125 -0.296875 1.21875 -0.296875q1.1875 0 1.96875 0.859375q0.78125 0.859375 0.78125 2.46875q0 1.296875 -0.4375 2.375q-0.421875 1.0625 -1.046875 1.71875q-0.625 0.640625 -1.265625 0.953125q-0.640625 0.296875 -1.3125 0.296875q-1.484375 0 -2.3125 -1.515625l-0.9375 4.515625l-1.421875 0zm2.8125 -6.578125q0 0.921875 0.125 1.28125q0.203125 0.515625 0.640625 0.828125q0.453125 0.3125 1.03125 0.3125q1.21875 0 1.96875 -1.375q0.75 -1.375 0.75 -2.796875q0 -1.0625 -0.5 -1.625q-0.5 -0.578125 -1.25 -0.578125q-0.546875 0 -1.015625 0.28125q-0.453125 0.28125 -0.84375 0.859375q-0.390625 0.5625 -0.65625 1.390625q-0.25 0.8125 -0.25 1.421875zm12.4609375 1.890625q-1.5 1.6875 -3.0625 1.6875q-0.953125 0 -1.546875 -0.546875q-0.59375 -0.5625 -0.59375 -1.359375q0 -0.515625 0.265625 -1.796875l1.0 -4.78125l1.421875 0l-1.109375 5.296875q-0.140625 0.671875 -0.140625 1.03125q0 0.46875 0.28125 0.734375q0.28125 0.265625 0.84375 0.265625q0.59375 0 1.15625 -0.28125q0.5625 -0.296875 0.96875 -0.78125q0.421875 -0.5 0.671875 -1.171875q0.171875 -0.4375 0.40625 -1.515625l0.75 -3.578125l1.40625 0l-1.734375 8.296875l-1.296875 0l0.3125 -1.5zm6.5390625 0.34375l-0.234375 1.171875q-0.515625 0.125 -0.984375 0.125q-0.84375 0 -1.34375 -0.421875q-0.375 -0.3125 -0.375 -0.84375q0 -0.28125 0.203125 -1.265625l1.0 -4.8125l-1.109375 0l0.21875 -1.09375l1.125 0l0.421875 -2.046875l1.625 -0.96875l-0.640625 3.015625l1.390625 0l-0.234375 1.09375l-1.375 0l-0.96875 4.578125q-0.171875 0.875 -0.171875 1.046875q0 0.25 0.140625 0.390625q0.140625 0.125 0.46875 0.125q0.46875 0 0.84375 -0.09375zm7.2265625 -1.671875l1.375 0.140625q-0.296875 1.03125 -1.359375 1.953125q-1.0625 0.921875 -2.546875 0.921875q-0.921875 0 -1.6875 -0.421875q-0.765625 -0.4375 -1.171875 -1.25q-0.40625 -0.8125 -0.40625 -1.84375q0 -1.359375 0.625 -2.640625q0.640625 -1.28125 1.640625 -1.890625q1.0 -0.625 2.15625 -0.625q1.484375 0 2.375 0.921875q0.890625 0.921875 0.890625 2.515625q0 0.609375 -0.109375 1.25l-6.109375 0q-0.03125 0.234375 -0.03125 0.4375q0 1.15625 0.53125 1.78125q0.53125 0.609375 1.3125 0.609375q0.71875 0 1.421875 -0.46875q0.703125 -0.484375 1.09375 -1.390625zm-4.109375 -2.046875l4.65625 0q0.015625 -0.21875 0.015625 -0.3125q0 -1.0625 -0.53125 -1.625q-0.53125 -0.578125 -1.375 -0.578125q-0.90625 0 -1.65625 0.625q-0.734375 0.625 -1.109375 1.890625zm6.9140625 4.875l1.734375 -8.296875l1.25 0l-0.34375 1.6875q0.640625 -0.953125 1.25 -1.40625q0.609375 -0.46875 1.25 -0.46875q0.421875 0 1.046875 0.296875l-0.578125 1.3125q-0.375 -0.265625 -0.8125 -0.265625q-0.734375 0 -1.515625 0.828125q-0.78125 0.828125 -1.234375 2.984375l-0.703125 3.328125l-1.34375 0z" fill-rule="nonzero"></path></g><path fill="#000000" fill-opacity="0.0" d="m220.3307 287.29922l-95.685036 -147.2756" fill-rule="evenodd"></path><path stroke="#000000" stroke-width="3.0" stroke-linejoin="round" stroke-linecap="butt" d="m210.5241 272.20517l-85.878426 -132.18155" fill-rule="evenodd"></path><path fill="#000000" stroke="#000000" stroke-width="3.0" stroke-linecap="butt" d="m206.36888 274.90482l11.572449 8.716736l-3.2620087 -14.116028z" fill-rule="evenodd"></path><path fill="#000000" fill-opacity="0.0" d="m145.88878 154.65944l102.39369 154.96062l-64.09448 42.362213l-102.3937 -154.96063z" fill-rule="evenodd"></path><path fill="#000000" d="m139.58006 179.43138q-0.12730408 0.4025421 -0.4147644 0.7611084q-0.27442932 0.3499298 -0.6915436 0.6256256q-0.61265564 0.4049225 -1.2544403 0.5106964q-0.6417694 0.105773926 -1.2737885 -0.057128906q-0.6103668 -0.15846252 -1.1762848 -0.5897827q-0.5659332 -0.4313202 -1.013855 -1.1092072q-0.31871033 -0.48233032 -0.49868774 -0.9814453q-0.17997742 -0.499115 -0.18722534 -0.8501892q-0.3163452 0.0030670166 -0.5807953 0.027999878q-0.2427826 0.02935791 -0.490448 0.1930542q-0.28677368 0.18954468 -0.30140686 0.5925293q-0.0060272217 0.41603088 0.29104614 0.89393616l1.2655487 2.0853424q0.37460327 0.5952301 0.54992676 1.172348q0.19697571 0.5815277 0.18188477 1.0971985q-0.015090942 0.5156555 -0.25086975 0.95243835q-0.21412659 0.44119263 -0.6964264 0.759964q-0.5214081 0.3446045 -1.1326904 0.41149902q-0.6157074 0.088531494 -1.2777557 -0.14814758q-0.66204834 -0.23667908 -1.3443756 -0.8158264q-0.6823273 -0.57914734 -1.3369904 -1.5698853q-0.6288147 -0.9516449 -0.911705 -1.7198639q-0.28730774 -0.74658203 -0.29782867 -1.3576965q-0.0149383545 -0.5894623 0.22083282 -1.0262451q0.23577881 -0.43676758 0.67897034 -0.72969055q0.5605087 -0.37046814 1.1629562 -0.39404297q0.60243225 -0.023590088 1.3552704 0.2654724q-0.03794861 -0.25585938 -0.010971069 -0.4984436q0.04862976 -0.23815918 0.15779114 -0.4414215q0.10916138 -0.20324707 0.25720215 -0.37600708q0.15664673 -0.159729 0.33914185 -0.28033447q0.5083771 -0.3360138 1.0805511 -0.37704468q0.5721741 -0.041046143 1.1525116 0.043624878q0.08773804 -0.26400757 0.17965698 -0.4933319q0.10055542 -0.21629333 0.23577881 -0.43678284q0.1438446 -0.20744324 0.3395996 -0.39300537q0.20880127 -0.19419861 0.50860596 -0.39234924q0.59962463 -0.39630127 1.2327728 -0.5151062q0.6548157 -0.11439514 1.2737885 0.057113647q0.63201904 0.16288757 1.1979523 0.59420776q0.56591797 0.43133545 1.0138397 1.1092072q0.18951416 0.2868042 0.3226776 0.57336426q0.13317871 0.28657532 0.2058258 0.53822327l1.860611 2.8158112l-1.0949554 0.72369385l-0.8269348 -1.2514801zm-10.878815 0.48506165q-0.54748535 0.36184692 -0.4161377 1.0991364q0.11830139 0.7458954 0.79019165 1.7627106q0.42208862 0.6387787 0.8236542 0.99142456q0.41020203 0.36569214 0.7779999 0.49719238q0.36338806 0.1531372 0.6885834 0.10676575q0.31214905 -0.037750244 0.5728607 -0.21005249q0.4692688 -0.31015015 0.44548035 -0.856308q-0.028213501 -0.5245209 -0.5145569 -1.3455658l-1.278595 -2.0767212q-0.34173584 -0.14871216 -0.61013794 -0.21479797q-0.27282715 -0.044433594 -0.50257874 -0.0236969q-0.22975159 0.020751953 -0.41201782 0.08502197q-0.19529724 0.072891235 -0.3647461 0.18489075zm6.615158 -3.791565q-0.36499023 0.2412262 -0.6003113 0.5653229q-0.22669983 0.3371277 -0.30186462 0.70521545q-0.053512573 0.37249756 0.027297974 0.7498627q0.08079529 0.3773651 0.33059692 0.75541687q0.26704407 0.40411377 0.604126 0.63082886q0.35011292 0.21810913 0.7095337 0.2802124q0.381073 0.06654358 0.74980164 -0.027328491q0.3773346 -0.080825806 0.7032013 -0.2962036q0.37802124 -0.24984741 0.59169006 -0.57836914q0.23532104 -0.32409668 0.30187988 -0.7052002q0.075149536 -0.3680725 -0.014266968 -0.7584839q-0.08079529 -0.3773651 -0.32199097 -0.74238586q-0.2670288 -0.40411377 -0.617157 -0.62220764q-0.3370819 -0.22671509 -0.7181549 -0.29325867q-0.35942078 -0.06211853 -0.7497864 0.027328491q-0.36871338 0.09387207 -0.69459534 0.30924988zm7.958618 8.926758l-1.516037 -2.2943726l1.1079865 -0.7322998l2.4205017 3.663147l-6.647934 4.39386l1.5246735 2.3073883l-1.1210327 0.740921l-4.117447 -6.2312775l1.1210175 -0.740921l1.688324 2.5550842l5.5399475 -3.6615295zm4.676895 -2.4168549q0.15504456 0.23464966 0.19743347 0.46884155q0.050994873 0.24723816 -0.010681152 0.49401855q-0.04862976 0.23817444 -0.19247437 0.44561768q-0.12219238 0.21186829 -0.34379578 0.35832214q-0.22158813 0.14646912 -0.477417 0.18444824q-0.24720764 0.05101013 -0.48535156 0.002380371q-0.23814392 -0.04862976 -0.45858765 -0.18385315q-0.19880676 -0.1308136 -0.35386658 -0.36547852q-0.1464386 -0.2216034 -0.19743347 -0.46884155q-0.037963867 -0.25584412 0.010681152 -0.49401855q0.04862976 -0.23815918 0.19247437 -0.44561768q0.1438446 -0.20744324 0.36543274 -0.3538971q0.2216034 -0.14646912 0.45578003 -0.18887329q0.24720764 -0.05101013 0.48535156 -0.002380371q0.25117493 0.040008545 0.45858765 0.18386841q0.20742798 0.1438446 0.35386658 0.36546326zm-3.1927643 18.91919q-0.41880798 -0.37872314 -0.7766266 -0.83522034q-0.37086487 -0.44787598 -0.70680237 -0.95628357q-0.9647522 -1.4600372 -0.79537964 -2.6208344q0.19102478 -1.1563721 1.5597229 -2.0609894l4.05394 -2.6793823l-1.4385223 -2.1770325l1.1340485 -0.74954224l1.4385376 2.1770325l2.1377563 -1.4129181l1.2478027 1.1231384l-2.4897156 1.6455383l2.2999115 3.4806519l-1.1340637 0.74954224l-2.2999115 -3.4806519l-3.936615 2.6018372q-0.83425903 0.5513916 -0.95851135 1.2703094q-0.12425232 0.71891785 0.4442749 1.5793152q0.24980164 0.3780365 0.5948181 0.7868042q0.3580475 0.40016174 0.7854614 0.7919159l-1.1601257 0.7667694zm21.312439 11.422058q-0.47613525 -1.2023926 -0.98435974 -1.9715271q-1.2059479 -1.825058 -3.109085 -0.56721497l-1.3686829 0.9046173l2.256836 3.4154663l-1.1210175 0.740921l-2.2568512 -3.4154663l-5.5138702 3.6443176l-0.9044647 -1.3688049l5.5138702 -3.6443024l-1.6452484 -2.4898987l1.1210175 -0.7409363l1.6452637 2.489914l1.2904816 -0.85292053q3.1023712 -2.050476 5.238617 1.1824951q0.5340729 0.8082428 0.9976196 1.9065704l-1.1601257 0.7667694zm-7.29126 -6.868088l0 0zm7.3471375 18.658127q-0.28677368 0.18954468 -0.49092102 0.30574036q-0.20413208 0.11619568 -0.38220215 0.21514893l-3.6006317 -5.4490967q-1.199234 0.79260254 -1.3986511 1.8796082q-0.19940186 1.0869904 0.62753296 2.3384705q0.22395325 0.33892822 0.47399902 0.66064453q0.26306152 0.3130951 0.5088959 0.6001129q0.26748657 0.29144287 0.50914 0.54377747q0.25468445 0.24371338 0.4835205 0.44831848l-1.1079865 0.73231506q-0.51820374 -0.44413757 -1.0659943 -1.0747375q-0.56082153 -0.621994 -1.0518188 -1.3650513q-0.66326904 -1.0037842 -0.8632965 -1.9017029q-0.20002747 -0.89790344 -0.0017547607 -1.7032013q0.21992493 -0.80088806 0.8164978 -1.5135803q0.5965576 -0.71269226 1.5481262 -1.3416138q0.82121277 -0.5427704 1.7062378 -0.7905731q0.893631 -0.23478699 1.7339935 -0.1533966q0.8619995 0.08580017 1.6185608 0.5222168q0.76519775 0.4494629 1.3164825 1.283783q0.54267883 0.8212738 0.6954498 1.6193085q0.165802 0.7894287 -0.019210815 1.5297852q-0.18501282 0.7403412 -0.71640015 1.4099579q-0.5183563 0.6609955 -1.3395691 1.2037659zm-0.747818 -1.5285187q0.53863525 -0.31854248 0.8826599 -0.73321533q0.35263062 -0.4016266 0.49320984 -0.86912537q0.14056396 -0.46748352 0.051605225 -0.9705658q-0.08035278 -0.49005127 -0.4249115 -1.0115051q-0.28425598 -0.43019104 -0.6949005 -0.683197q-0.41064453 -0.25302124 -0.9043884 -0.32000732q-0.47209167 -0.062561035 -1.0186462 0.07392883q-0.5335388 0.12786865 -1.08078 0.43338013l2.6961517 4.080307zm1.9985046 12.547607q-0.41879272 -0.3787384 -0.7766266 -0.83522034q-0.3708496 -0.44787598 -0.7067871 -0.95628357q-0.96476746 -1.4600525 -0.79537964 -2.6208496q0.19102478 -1.1563721 1.5597229 -2.0609894l4.05394 -2.6793823l-1.4385376 -2.1770325l1.1340637 -0.74954224l1.4385223 2.1770325l2.1377716 -1.4129181l1.2478027 1.1231384l-2.4897156 1.6455383l2.2999115 3.4806519l-1.1340637 0.74954224l-2.2999115 -3.4806519l-3.9366302 2.6018524q-0.8342438 0.55137634 -0.9584961 1.2702942q-0.12425232 0.7189331 0.44425964 1.5793152q0.24980164 0.37805176 0.5948181 0.78681946q0.3580475 0.40014648 0.7854767 0.7919159l-1.160141 0.7667694zm5.690811 8.215561q-0.54008484 -0.3922119 -1.0017242 -0.8924713q-0.46606445 -0.47859192 -0.85369873 -1.0652161q-1.223175 -1.8511353 -0.88716125 -3.496643q0.34906006 -1.654129 2.2652283 -2.9205933q0.92549133 -0.61169434 1.8580017 -0.815979q0.94555664 -0.21289062 1.8159332 -0.057724q0.8789978 0.16822815 1.6395416 0.69566345q0.7691498 0.5404968 1.337677 1.4008789q0.4048462 0.6127014 0.65815735 1.194458q0.26634216 0.5731354 0.40257263 1.1760864l-1.2904816 0.85292053q-0.06663513 -0.66767883 -0.30249023 -1.2797089q-0.21420288 -0.6075897 -0.57598877 -1.1551056q-0.34454346 -0.52145386 -0.8632202 -0.8529053q-0.49700928 -0.32704163 -1.107605 -0.4291687q-0.5889435 -0.09770203 -1.2612152 0.046951294q-0.6636505 0.15768433 -1.3284454 0.5970764q-1.4077911 0.93045044 -1.6637726 2.0735626q-0.24736023 1.1561432 0.55374146 2.368515q0.36177063 0.54751587 0.81503296 0.9783783q0.47491455 0.43530273 1.0412903 0.75393677l-1.2513733 0.8270874zm5.5057983 8.955902l-0.8872223 -1.3427124l4.9664 -3.2824707q0.88638306 -0.58584595 1.1056213 -1.2177124q0.23226929 -0.6404724 -0.18119812 -1.2662048q-0.18089294 -0.27375793 -0.41415405 -0.45672607q-0.23326111 -0.18295288 -0.58802795 -0.32305908q-0.33312988 -0.13568115 -0.8440857 -0.2287445q-0.51097107 -0.093063354 -1.2472687 -0.18702698l-5.1488953 3.4030762l-0.88723755 -1.3427277l10.936523 -7.228302l0.8872223 1.3427124l-3.1675415 2.0935364l-1.2511444 0.77075195q0.5847473 0.0630188 1.0435791 0.1905365q0.46743774 0.14056396 0.8219757 0.33700562q0.3761902 0.2008667 0.6481018 0.47065735q0.29356384 0.2742157 0.5175171 0.6131592q0.76664734 1.1602173 0.46318054 2.2597961q-0.28181458 1.1040039 -1.702652 2.0430756l-5.070694 3.3513794z" fill-rule="nonzero"></path><path fill="#000000" fill-opacity="0.0" d="m166.67455 320.15222l321.25983 0l0 103.18112l-321.25983 0z" fill-rule="evenodd"></path><path fill="#000000" d="m183.86205 339.07224q0.265625 0.328125 0.40625 0.765625q0.140625 0.421875 0.140625 0.921875q0 0.734375 -0.265625 1.328125q-0.265625 0.59375 -0.75 1.03125q-0.46875 0.421875 -1.140625 0.65625q-0.671875 0.234375 -1.484375 0.234375q-0.578125 0 -1.09375 -0.125q-0.515625 -0.125 -0.8125 -0.3125q-0.171875 0.265625 -0.296875 0.5q-0.109375 0.21875 -0.109375 0.515625q0 0.34375 0.328125 0.578125q0.34375 0.234375 0.90625 0.25l2.4375 0.09375q0.703125 0.015625 1.28125 0.1875q0.59375 0.15625 1.015625 0.453125q0.421875 0.296875 0.65625 0.734375q0.25 0.421875 0.25 1.0q0 0.625 -0.28125 1.171875q-0.265625 0.5625 -0.828125 0.984375q-0.5625 0.421875 -1.421875 0.671875q-0.859375 0.25 -2.046875 0.25q-1.140625 0 -1.9375 -0.1875q-0.78125 -0.171875 -1.296875 -0.5q-0.5 -0.3125 -0.734375 -0.75q-0.234375 -0.4375 -0.234375 -0.96875q0 -0.671875 0.3125 -1.1875q0.3125 -0.515625 0.96875 -0.984375q-0.234375 -0.109375 -0.421875 -0.265625q-0.171875 -0.171875 -0.28125 -0.375q-0.109375 -0.203125 -0.171875 -0.421875q-0.046875 -0.21875 -0.046875 -0.4375q0 -0.609375 0.28125 -1.109375q0.28125 -0.5 0.671875 -0.9375q-0.171875 -0.21875 -0.3125 -0.421875q-0.125 -0.203125 -0.234375 -0.4375q-0.09375 -0.234375 -0.140625 -0.5q-0.046875 -0.28125 -0.046875 -0.640625q0 -0.71875 0.25 -1.3125q0.265625 -0.609375 0.75 -1.03125q0.484375 -0.4375 1.15625 -0.671875q0.671875 -0.234375 1.484375 -0.234375q0.34375 0 0.65625 0.046875q0.3125 0.046875 0.5625 0.125l3.375 0l0 1.3125l-1.5 0zm-5.59375 9.34375q0 0.65625 0.6875 0.953125q0.6875 0.3125 1.90625 0.3125q0.765625 0 1.28125 -0.140625q0.53125 -0.140625 0.84375 -0.375q0.328125 -0.21875 0.46875 -0.515625q0.140625 -0.28125 0.140625 -0.59375q0 -0.5625 -0.46875 -0.84375q-0.453125 -0.265625 -1.40625 -0.3125l-2.4375 -0.078125q-0.3125 0.203125 -0.515625 0.390625q-0.1875 0.203125 -0.296875 0.40625q-0.109375 0.203125 -0.15625 0.390625q-0.046875 0.203125 -0.046875 0.40625zm0.484375 -7.609375q0 0.4375 0.140625 0.8125q0.15625 0.375 0.421875 0.640625q0.28125 0.25 0.640625 0.390625q0.359375 0.140625 0.8125 0.140625q0.484375 0 0.859375 -0.15625q0.375 -0.171875 0.625 -0.4375q0.265625 -0.28125 0.390625 -0.640625q0.140625 -0.359375 0.140625 -0.75q0 -0.453125 -0.15625 -0.8125q-0.140625 -0.375 -0.421875 -0.640625q-0.265625 -0.265625 -0.640625 -0.40625q-0.359375 -0.140625 -0.796875 -0.140625q-0.484375 0 -0.859375 0.171875q-0.375 0.15625 -0.640625 0.4375q-0.25 0.265625 -0.390625 0.640625q-0.125 0.359375 -0.125 0.75zm11.835419 -1.71875l-2.75 0l0 -1.328125l4.390625 0l0 7.96875l2.765625 0l0 1.34375l-7.46875 0l0 -1.34375l3.0625 0l0 -6.640625zm0.5625 -5.234375q0.28125 0 0.5 0.09375q0.234375 0.09375 0.40625 0.28125q0.171875 0.171875 0.265625 0.40625q0.109375 0.21875 0.109375 0.484375q0 0.265625 -0.109375 0.5q-0.09375 0.234375 -0.265625 0.40625q-0.171875 0.171875 -0.40625 0.28125q-0.21875 0.09375 -0.5 0.09375q-0.265625 0 -0.5 -0.09375q-0.234375 -0.109375 -0.40625 -0.28125q-0.171875 -0.171875 -0.265625 -0.40625q-0.09375 -0.234375 -0.09375 -0.5q0 -0.265625 0.09375 -0.484375q0.09375 -0.234375 0.265625 -0.40625q0.171875 -0.1875 0.40625 -0.28125q0.234375 -0.09375 0.5 -0.09375zm14.022919 13.09375q-0.546875 0.140625 -1.125 0.1875q-0.578125 0.0625 -1.1875 0.0625q-1.75 0 -2.625 -0.78125q-0.859375 -0.796875 -0.859375 -2.4375l0 -4.859375l-2.609375 0l0 -1.359375l2.609375 0l0 -2.5625l1.625 -0.421875l0 2.984375l4.171875 0l0 1.359375l-4.171875 0l0 4.71875q0 1.0 0.53125 1.5q0.53125 0.5 1.5625 0.5q0.453125 0 0.984375 -0.0625q0.53125 -0.078125 1.09375 -0.21875l0 1.390625zm20.248962 -0.21875q-0.625 0.234375 -1.296875 0.34375q-0.65625 0.125 -1.359375 0.125q-2.21875 0 -3.40625 -1.1875q-1.1875 -1.203125 -1.1875 -3.5q0 -1.109375 0.34375 -2.0q0.34375 -0.90625 0.953125 -1.546875q0.625 -0.640625 1.484375 -0.984375q0.875 -0.34375 1.90625 -0.34375q0.734375 0 1.359375 0.109375q0.625 0.09375 1.203125 0.3125l0 1.546875q-0.59375 -0.3125 -1.234375 -0.453125q-0.625 -0.15625 -1.28125 -0.15625q-0.625 0 -1.1875 0.25q-0.546875 0.234375 -0.96875 0.6875q-0.40625 0.4375 -0.65625 1.078125q-0.234375 0.640625 -0.234375 1.4375q0 1.6875 0.8125 2.53125q0.828125 0.84375 2.28125 0.84375q0.65625 0 1.265625 -0.140625q0.625 -0.15625 1.203125 -0.453125l0 1.5zm10.507294 0.34375l-1.609375 0l0 -5.953125q0 -1.0625 -0.40625 -1.59375q-0.40625 -0.546875 -1.15625 -0.546875q-0.328125 0 -0.609375 0.09375q-0.28125 0.09375 -0.59375 0.3125q-0.296875 0.203125 -0.65625 0.578125q-0.359375 0.375 -0.84375 0.9375l0 6.171875l-1.609375 0l0 -13.109375l1.609375 0l0 3.796875l-0.046875 1.46875q0.375 -0.453125 0.734375 -0.765625q0.375 -0.3125 0.734375 -0.5q0.375 -0.203125 0.75 -0.28125q0.390625 -0.09375 0.796875 -0.09375q1.390625 0 2.140625 0.859375q0.765625 0.84375 0.765625 2.546875l0 6.078125zm10.647919 -5.15625q0 0.34375 -0.015625 0.578125q-0.015625 0.234375 -0.03125 0.4375l-6.53125 0q0 1.4375 0.796875 2.203125q0.796875 0.765625 2.296875 0.765625q0.40625 0 0.8125 -0.03125q0.40625 -0.046875 0.78125 -0.09375q0.390625 -0.0625 0.734375 -0.125q0.34375 -0.078125 0.640625 -0.15625l0 1.328125q-0.65625 0.1875 -1.484375 0.296875q-0.828125 0.125 -1.71875 0.125q-1.203125 0 -2.0625 -0.328125q-0.859375 -0.328125 -1.421875 -0.9375q-0.546875 -0.625 -0.8125 -1.515625q-0.265625 -0.890625 -0.265625 -2.03125q0 -0.984375 0.28125 -1.859375q0.296875 -0.875 0.828125 -1.53125q0.546875 -0.671875 1.328125 -1.0625q0.796875 -0.390625 1.796875 -0.390625q0.984375 0 1.734375 0.3125q0.75 0.296875 1.265625 0.859375q0.515625 0.5625 0.78125 1.375q0.265625 0.796875 0.265625 1.78125zm-1.6875 -0.21875q0.03125 -0.625 -0.125 -1.140625q-0.140625 -0.515625 -0.453125 -0.890625q-0.3125 -0.375 -0.78125 -0.578125q-0.453125 -0.203125 -1.078125 -0.203125q-0.515625 0 -0.953125 0.203125q-0.4375 0.203125 -0.765625 0.578125q-0.3125 0.359375 -0.5 0.890625q-0.1875 0.515625 -0.234375 1.140625l4.890625 0zm11.304153 5.03125q-0.62498474 0.234375 -1.2968597 0.34375q-0.65625 0.125 -1.359375 0.125q-2.21875 0 -3.40625 -1.1875q-1.1875 -1.203125 -1.1875 -3.5q0 -1.109375 0.34375 -2.0q0.34375 -0.90625 0.953125 -1.546875q0.625 -0.640625 1.484375 -0.984375q0.875 -0.34375 1.90625 -0.34375q0.734375 0 1.359375 0.109375q0.625 0.09375 1.2031097 0.3125l0 1.546875q-0.59373474 -0.3125 -1.2343597 -0.453125q-0.625 -0.15625 -1.28125 -0.15625q-0.625 0 -1.1875 0.25q-0.546875 0.234375 -0.96875 0.6875q-0.40625 0.4375 -0.65625 1.078125q-0.234375 0.640625 -0.234375 1.4375q0 1.6875 0.8125 2.53125q0.828125 0.84375 2.28125 0.84375q0.65625 0 1.265625 -0.140625q0.625 -0.15625 1.2031097 -0.453125l0 1.5zm11.397919 0.34375l-2.21875 0l-4.34375 -4.984375l0 4.984375l-1.609375 0l0 -13.109375l1.609375 0l0 8.046875l4.1875 -4.25l2.140625 0l-4.375 4.296875l4.609375 5.015625zm9.991669 -4.734375q0 1.09375 -0.3125 2.0q-0.296875 0.890625 -0.875 1.546875q-0.578125 0.640625 -1.40625 1.0q-0.828125 0.359375 -1.875 0.359375q-1.0 0 -1.796875 -0.3125q-0.78125 -0.3125 -1.34375 -0.90625q-0.546875 -0.609375 -0.84375 -1.5q-0.28125 -0.890625 -0.28125 -2.0625q0 -1.078125 0.296875 -1.96875q0.3125 -0.90625 0.875 -1.546875q0.578125 -0.640625 1.40625 -1.0q0.828125 -0.359375 1.875 -0.359375q1.0 0 1.796875 0.3125q0.796875 0.3125 1.34375 0.921875q0.5625 0.59375 0.84375 1.484375q0.296875 0.890625 0.296875 2.03125zm-1.65625 0.078125q0 -0.859375 -0.1875 -1.5q-0.1875 -0.65625 -0.546875 -1.078125q-0.34375 -0.4375 -0.859375 -0.65625q-0.5 -0.21875 -1.125 -0.21875q-0.71875 0 -1.234375 0.28125q-0.515625 0.28125 -0.84375 0.765625q-0.328125 0.46875 -0.484375 1.09375q-0.15625 0.625 -0.15625 1.3125q0 0.859375 0.1875 1.515625q0.203125 0.640625 0.546875 1.078125q0.359375 0.421875 0.859375 0.640625q0.5 0.21875 1.125 0.21875q0.734375 0 1.25 -0.28125q0.515625 -0.28125 0.84375 -0.75q0.328125 -0.46875 0.46875 -1.09375q0.15625 -0.640625 0.15625 -1.328125zm11.288544 4.65625l-1.4375 0l-0.0625 -1.5q-0.421875 0.484375 -0.796875 0.8125q-0.375 0.3125 -0.75 0.515625q-0.359375 0.1875 -0.734375 0.265625q-0.375 0.078125 -0.796875 0.078125q-1.4375 0 -2.171875 -0.84375q-0.734375 -0.84375 -0.734375 -2.5625l0 -6.078125l1.609375 0l0 5.953125q0 2.140625 1.625 2.140625q0.296875 0 0.578125 -0.078125q0.28125 -0.09375 0.59375 -0.3125q0.3125 -0.21875 0.65625 -0.578125q0.359375 -0.375 0.8125 -0.953125l0 -6.171875l1.609375 0l0 9.3125zm10.272919 -0.125q-0.546875 0.140625 -1.125 0.1875q-0.578125 0.0625 -1.1875 0.0625q-1.75 0 -2.625 -0.78125q-0.859375 -0.796875 -0.859375 -2.4375l0 -4.859375l-2.609375 0l0 -1.359375l2.609375 0l0 -2.5625l1.625 -0.421875l0 2.984375l4.171875 0l0 1.359375l-4.171875 0l0 4.71875q0 1.0 0.53125 1.5q0.53125 0.5 1.5625 0.5q0.453125 0 0.984375 -0.0625q0.53125 -0.078125 1.09375 -0.21875l0 1.390625zm19.655212 0.125l0 -6.6875q0 -0.4375 -0.03125 -0.71875q-0.03125 -0.28125 -0.109375 -0.4375q-0.0625 -0.15625 -0.171875 -0.21875q-0.109375 -0.078125 -0.265625 -0.078125q-0.1875 0 -0.34375 0.125q-0.15625 0.109375 -0.34375 0.359375q-0.171875 0.25 -0.390625 0.65625q-0.21875 0.40625 -0.515625 1.015625l0 5.984375l-1.46875 0l0 -6.515625q0 -0.5 -0.03125 -0.8125q-0.03125 -0.328125 -0.109375 -0.5q-0.0625 -0.171875 -0.1875 -0.234375q-0.109375 -0.078125 -0.265625 -0.078125q-0.15625 0 -0.3125 0.09375q-0.140625 0.09375 -0.328125 0.34375q-0.171875 0.234375 -0.40625 0.65625q-0.21875 0.40625 -0.53125 1.0625l0 5.984375l-1.484375 0l0 -9.3125l1.234375 0l0.078125 1.765625q0.25 -0.53125 0.46875 -0.890625q0.234375 -0.375 0.46875 -0.59375q0.25 -0.234375 0.515625 -0.34375q0.28125 -0.109375 0.609375 -0.109375q0.75 0 1.140625 0.5q0.390625 0.484375 0.390625 1.515625q0.21875 -0.484375 0.4375 -0.859375q0.21875 -0.375 0.453125 -0.625q0.25 -0.265625 0.546875 -0.390625q0.296875 -0.140625 0.6875 -0.140625q1.75 0 1.75 2.703125l0 6.78125l-1.484375 0zm9.601044 0l-0.03125 -1.25q-0.765625 0.75 -1.546875 1.09375q-0.78125 0.328125 -1.65625 0.328125q-0.796875 0 -1.359375 -0.203125q-0.5625 -0.203125 -0.9375 -0.5625q-0.359375 -0.359375 -0.53125 -0.84375q-0.171875 -0.484375 -0.171875 -1.046875q0 -1.40625 1.046875 -2.1875q1.046875 -0.796875 3.078125 -0.796875l1.9375 0l0 -0.828125q0 -0.8125 -0.53125 -1.3125q-0.53125 -0.5 -1.609375 -0.5q-0.796875 0 -1.5625 0.1875q-0.765625 0.171875 -1.578125 0.484375l0 -1.453125q0.296875 -0.109375 0.671875 -0.21875q0.390625 -0.109375 0.796875 -0.1875q0.421875 -0.078125 0.875 -0.125q0.453125 -0.0625 0.921875 -0.0625q0.84375 0 1.515625 0.1875q0.6875 0.1875 1.15625 0.578125q0.46875 0.375 0.71875 0.953125q0.25 0.5625 0.25 1.34375l0 6.421875l-1.453125 0zm-0.171875 -4.234375l-2.0625 0q-0.59375 0 -1.03125 0.125q-0.4375 0.109375 -0.71875 0.34375q-0.28125 0.21875 -0.421875 0.53125q-0.125 0.296875 -0.125 0.6875q0 0.28125 0.078125 0.53125q0.09375 0.234375 0.28125 0.421875q0.1875 0.1875 0.484375 0.3125q0.296875 0.109375 0.71875 0.109375q0.5625 0 1.28125 -0.34375q0.71875 -0.34375 1.515625 -1.078125l0 -1.640625zm11.819794 1.6875q0 0.5 -0.171875 0.890625q-0.15625 0.390625 -0.453125 0.6875q-0.28125 0.296875 -0.671875 0.515625q-0.375 0.21875 -0.8125 0.359375q-0.421875 0.125 -0.875 0.1875q-0.453125 0.078125 -0.890625 0.078125q-0.953125 0 -1.75 -0.09375q-0.78125 -0.078125 -1.546875 -0.265625l0 -1.484375q0.8125 0.234375 1.625 0.359375q0.8125 0.109375 1.609375 0.109375q1.15625 0 1.703125 -0.3125q0.5625 -0.3125 0.5625 -0.890625q0 -0.25 -0.09375 -0.453125q-0.078125 -0.203125 -0.3125 -0.375q-0.234375 -0.1875 -0.71875 -0.375q-0.484375 -0.203125 -1.328125 -0.453125q-0.640625 -0.1875 -1.171875 -0.421875q-0.53125 -0.234375 -0.921875 -0.5625q-0.390625 -0.328125 -0.609375 -0.765625q-0.21875 -0.4375 -0.21875 -1.03125q0 -0.390625 0.171875 -0.84375q0.1875 -0.46875 0.625 -0.859375q0.4375 -0.40625 1.171875 -0.671875q0.75 -0.265625 1.859375 -0.265625q0.546875 0 1.21875 0.0625q0.671875 0.0625 1.390625 0.203125l0 1.4375q-0.765625 -0.171875 -1.453125 -0.265625q-0.671875 -0.09375 -1.171875 -0.09375q-0.609375 0 -1.03125 0.09375q-0.40625 0.09375 -0.65625 0.265625q-0.25 0.15625 -0.375 0.375q-0.109375 0.21875 -0.109375 0.46875q0 0.25 0.09375 0.453125q0.109375 0.203125 0.375 0.390625q0.265625 0.1875 0.734375 0.390625q0.46875 0.1875 1.234375 0.40625q0.828125 0.234375 1.390625 0.5q0.5625 0.265625 0.90625 0.59375q0.359375 0.328125 0.515625 0.734375q0.15625 0.40625 0.15625 0.921875zm10.382294 2.421875q-0.546875 0.140625 -1.125 0.1875q-0.578125 0.0625 -1.1875 0.0625q-1.75 0 -2.625 -0.78125q-0.859375 -0.796875 -0.859375 -2.4375l0 -4.859375l-2.609375 0l0 -1.359375l2.609375 0l0 -2.5625l1.625 -0.421875l0 2.984375l4.171875 0l0 1.359375l-4.171875 0l0 4.71875q0 1.0 0.53125 1.5q0.53125 0.5 1.5625 0.5q0.453125 0 0.984375 -0.0625q0.53125 -0.078125 1.09375 -0.21875l0 1.390625zm10.632294 -5.03125q0 0.34375 -0.015625 0.578125q-0.015625 0.234375 -0.03125 0.4375l-6.53125 0q0 1.4375 0.796875 2.203125q0.796875 0.765625 2.296875 0.765625q0.40625 0 0.8125 -0.03125q0.40625 -0.046875 0.78125 -0.09375q0.390625 -0.0625 0.734375 -0.125q0.34375 -0.078125 0.640625 -0.15625l0 1.328125q-0.65625 0.1875 -1.484375 0.296875q-0.828125 0.125 -1.71875 0.125q-1.203125 0 -2.0625 -0.328125q-0.859375 -0.328125 -1.421875 -0.9375q-0.546875 -0.625 -0.8125 -1.515625q-0.265625 -0.890625 -0.265625 -2.03125q0 -0.984375 0.28125 -1.859375q0.296875 -0.875 0.828125 -1.53125q0.546875 -0.671875 1.328125 -1.0625q0.796875 -0.390625 1.796875 -0.390625q0.984375 0 1.734375 0.3125q0.75 0.296875 1.265625 0.859375q0.515625 0.5625 0.78125 1.375q0.265625 0.796875 0.265625 1.78125zm-1.6875 -0.21875q0.03125 -0.625 -0.125 -1.140625q-0.140625 -0.515625 -0.453125 -0.890625q-0.3125 -0.375 -0.78125 -0.578125q-0.453125 -0.203125 -1.078125 -0.203125q-0.515625 0 -0.953125 0.203125q-0.4375 0.203125 -0.765625 0.578125q-0.3125 0.359375 -0.5 0.890625q-0.1875 0.515625 -0.234375 1.140625l4.890625 0zm4.4447937 -3.9375l1.484375 0l0.046875 1.71875q0.828125 -1.0 1.625 -1.4375q0.796875 -0.453125 1.625 -0.453125q1.4375 0 2.1875 0.9375q0.75 0.9375 0.6875 2.78125l-1.625 0q0.015625 -1.21875 -0.375 -1.765625q-0.375 -0.5625 -1.109375 -0.5625q-0.328125 0 -0.65625 0.125q-0.328125 0.109375 -0.6875 0.375q-0.34375 0.25 -0.734375 0.65625q-0.390625 0.390625 -0.828125 0.953125l0 5.984375l-1.640625 0l0 -9.3125z" fill-rule="nonzero"></path><path fill="#000000" d="m183.86205 361.07224q0.265625 0.328125 0.40625 0.765625q0.140625 0.421875 0.140625 0.921875q0 0.734375 -0.265625 1.328125q-0.265625 0.59375 -0.75 1.03125q-0.46875 0.421875 -1.140625 0.65625q-0.671875 0.234375 -1.484375 0.234375q-0.578125 0 -1.09375 -0.125q-0.515625 -0.125 -0.8125 -0.3125q-0.171875 0.265625 -0.296875 0.5q-0.109375 0.21875 -0.109375 0.515625q0 0.34375 0.328125 0.578125q0.34375 0.234375 0.90625 0.25l2.4375 0.09375q0.703125 0.015625 1.28125 0.1875q0.59375 0.15625 1.015625 0.453125q0.421875 0.296875 0.65625 0.734375q0.25 0.421875 0.25 1.0q0 0.625 -0.28125 1.171875q-0.265625 0.5625 -0.828125 0.984375q-0.5625 0.421875 -1.421875 0.671875q-0.859375 0.25 -2.046875 0.25q-1.140625 0 -1.9375 -0.1875q-0.78125 -0.171875 -1.296875 -0.5q-0.5 -0.3125 -0.734375 -0.75q-0.234375 -0.4375 -0.234375 -0.96875q0 -0.671875 0.3125 -1.1875q0.3125 -0.515625 0.96875 -0.984375q-0.234375 -0.109375 -0.421875 -0.265625q-0.171875 -0.171875 -0.28125 -0.375q-0.109375 -0.203125 -0.171875 -0.421875q-0.046875 -0.21875 -0.046875 -0.4375q0 -0.609375 0.28125 -1.109375q0.28125 -0.5 0.671875 -0.9375q-0.171875 -0.21875 -0.3125 -0.421875q-0.125 -0.203125 -0.234375 -0.4375q-0.09375 -0.234375 -0.140625 -0.5q-0.046875 -0.28125 -0.046875 -0.640625q0 -0.71875 0.25 -1.3125q0.265625 -0.609375 0.75 -1.03125q0.484375 -0.4375 1.15625 -0.671875q0.671875 -0.234375 1.484375 -0.234375q0.34375 0 0.65625 0.046875q0.3125 0.046875 0.5625 0.125l3.375 0l0 1.3125l-1.5 0zm-5.59375 9.34375q0 0.65625 0.6875 0.953125q0.6875 0.3125 1.90625 0.3125q0.765625 0 1.28125 -0.140625q0.53125 -0.140625 0.84375 -0.375q0.328125 -0.21875 0.46875 -0.515625q0.140625 -0.28125 0.140625 -0.59375q0 -0.5625 -0.46875 -0.84375q-0.453125 -0.265625 -1.40625 -0.3125l-2.4375 -0.078125q-0.3125 0.203125 -0.515625 0.390625q-0.1875 0.203125 -0.296875 0.40625q-0.109375 0.203125 -0.15625 0.390625q-0.046875 0.203125 -0.046875 0.40625zm0.484375 -7.609375q0 0.4375 0.140625 0.8125q0.15625 0.375 0.421875 0.640625q0.28125 0.25 0.640625 0.390625q0.359375 0.140625 0.8125 0.140625q0.484375 0 0.859375 -0.15625q0.375 -0.171875 0.625 -0.4375q0.265625 -0.28125 0.390625 -0.640625q0.140625 -0.359375 0.140625 -0.75q0 -0.453125 -0.15625 -0.8125q-0.140625 -0.375 -0.421875 -0.640625q-0.265625 -0.265625 -0.640625 -0.40625q-0.359375 -0.140625 -0.796875 -0.140625q-0.484375 0 -0.859375 0.171875q-0.375 0.15625 -0.640625 0.4375q-0.25 0.265625 -0.390625 0.640625q-0.125 0.359375 -0.125 0.75zm11.835419 -1.71875l-2.75 0l0 -1.328125l4.390625 0l0 7.96875l2.765625 0l0 1.34375l-7.46875 0l0 -1.34375l3.0625 0l0 -6.640625zm0.5625 -5.234375q0.28125 0 0.5 0.09375q0.234375 0.09375 0.40625 0.28125q0.171875 0.171875 0.265625 0.40625q0.109375 0.21875 0.109375 0.484375q0 0.265625 -0.109375 0.5q-0.09375 0.234375 -0.265625 0.40625q-0.171875 0.171875 -0.40625 0.28125q-0.21875 0.09375 -0.5 0.09375q-0.265625 0 -0.5 -0.09375q-0.234375 -0.109375 -0.40625 -0.28125q-0.171875 -0.171875 -0.265625 -0.40625q-0.09375 -0.234375 -0.09375 -0.5q0 -0.265625 0.09375 -0.484375q0.09375 -0.234375 0.265625 -0.40625q0.171875 -0.1875 0.40625 -0.28125q0.234375 -0.09375 0.5 -0.09375zm14.022919 13.09375q-0.546875 0.140625 -1.125 0.1875q-0.578125 0.0625 -1.1875 0.0625q-1.75 0 -2.625 -0.78125q-0.859375 -0.796875 -0.859375 -2.4375l0 -4.859375l-2.609375 0l0 -1.359375l2.609375 0l0 -2.5625l1.625 -0.421875l0 2.984375l4.171875 0l0 1.359375l-4.171875 0l0 4.71875q0 1.0 0.53125 1.5q0.53125 0.5 1.5625 0.5q0.453125 0 0.984375 -0.0625q0.53125 -0.078125 1.09375 -0.21875l0 1.390625zm19.655212 0.125l0 -6.6875q0 -0.4375 -0.03125 -0.71875q-0.03125 -0.28125 -0.109375 -0.4375q-0.0625 -0.15625 -0.171875 -0.21875q-0.109375 -0.078125 -0.265625 -0.078125q-0.1875 0 -0.34375 0.125q-0.15625 0.109375 -0.34375 0.359375q-0.171875 0.25 -0.390625 0.65625q-0.21875 0.40625 -0.515625 1.015625l0 5.984375l-1.46875 0l0 -6.515625q0 -0.5 -0.03125 -0.8125q-0.03125 -0.328125 -0.109375 -0.5q-0.0625 -0.171875 -0.1875 -0.234375q-0.109375 -0.078125 -0.265625 -0.078125q-0.15625 0 -0.3125 0.09375q-0.140625 0.09375 -0.328125 0.34375q-0.171875 0.234375 -0.40625 0.65625q-0.21875 0.40625 -0.53125 1.0625l0 5.984375l-1.484375 0l0 -9.3125l1.234375 0l0.078125 1.765625q0.25 -0.53125 0.46875 -0.890625q0.234375 -0.375 0.46875 -0.59375q0.25 -0.234375 0.515625 -0.34375q0.28125 -0.109375 0.609375 -0.109375q0.75 0 1.140625 0.5q0.390625 0.484375 0.390625 1.515625q0.21875 -0.484375 0.4375 -0.859375q0.21875 -0.375 0.453125 -0.625q0.25 -0.265625 0.546875 -0.390625q0.296875 -0.140625 0.6875 -0.140625q1.75 0 1.75 2.703125l0 6.78125l-1.484375 0zm11.491669 -5.15625q0 0.34375 -0.015625 0.578125q-0.015625 0.234375 -0.03125 0.4375l-6.53125 0q0 1.4375 0.796875 2.203125q0.796875 0.765625 2.296875 0.765625q0.40625 0 0.8125 -0.03125q0.40625 -0.046875 0.78125 -0.09375q0.390625 -0.0625 0.734375 -0.125q0.34375 -0.078125 0.640625 -0.15625l0 1.328125q-0.65625 0.1875 -1.484375 0.296875q-0.828125 0.125 -1.71875 0.125q-1.203125 0 -2.0625 -0.328125q-0.859375 -0.328125 -1.421875 -0.9375q-0.546875 -0.625 -0.8125 -1.515625q-0.265625 -0.890625 -0.265625 -2.03125q0 -0.984375 0.28125 -1.859375q0.296875 -0.875 0.828125 -1.53125q0.546875 -0.671875 1.328125 -1.0625q0.796875 -0.390625 1.796875 -0.390625q0.984375 0 1.734375 0.3125q0.75 0.296875 1.265625 0.859375q0.515625 0.5625 0.78125 1.375q0.265625 0.796875 0.265625 1.78125zm-1.6875 -0.21875q0.03125 -0.625 -0.125 -1.140625q-0.140625 -0.515625 -0.453125 -0.890625q-0.3125 -0.375 -0.78125 -0.578125q-0.453125 -0.203125 -1.078125 -0.203125q-0.515625 0 -0.953125 0.203125q-0.4375 0.203125 -0.765625 0.578125q-0.3125 0.359375 -0.5 0.890625q-0.1875 0.515625 -0.234375 1.140625l4.890625 0zm4.4447937 -3.9375l1.484375 0l0.046875 1.71875q0.828125 -1.0 1.625 -1.4375q0.796875 -0.453125 1.625 -0.453125q1.4375 0 2.1875 0.9375q0.75 0.9375 0.6875 2.78125l-1.625 0q0.015625 -1.21875 -0.375 -1.765625q-0.375 -0.5625 -1.109375 -0.5625q-0.328125 0 -0.65625 0.125q-0.328125 0.109375 -0.6875 0.375q-0.34375 0.25 -0.734375 0.65625q-0.390625 0.390625 -0.828125 0.953125l0 5.984375l-1.640625 0l0 -9.3125zm16.585419 1.3125q0.265625 0.328125 0.40623474 0.765625q0.140625 0.421875 0.140625 0.921875q0 0.734375 -0.26560974 1.328125q-0.265625 0.59375 -0.75 1.03125q-0.46875 0.421875 -1.140625 0.65625q-0.671875 0.234375 -1.484375 0.234375q-0.578125 0 -1.09375 -0.125q-0.515625 -0.125 -0.8125 -0.3125q-0.171875 0.265625 -0.296875 0.5q-0.109375 0.21875 -0.109375 0.515625q0 0.34375 0.328125 0.578125q0.34375 0.234375 0.90625 0.25l2.4375 0.09375q0.703125 0.015625 1.28125 0.1875q0.59375 0.15625 1.0156097 0.453125q0.421875 0.296875 0.65625 0.734375q0.25 0.421875 0.25 1.0q0 0.625 -0.28125 1.171875q-0.265625 0.5625 -0.828125 0.984375q-0.56248474 0.421875 -1.4218597 0.671875q-0.859375 0.25 -2.046875 0.25q-1.140625 0 -1.9375 -0.1875q-0.78125 -0.171875 -1.296875 -0.5q-0.5 -0.3125 -0.734375 -0.75q-0.234375 -0.4375 -0.234375 -0.96875q0 -0.671875 0.3125 -1.1875q0.3125 -0.515625 0.96875 -0.984375q-0.234375 -0.109375 -0.421875 -0.265625q-0.171875 -0.171875 -0.28125 -0.375q-0.109375 -0.203125 -0.171875 -0.421875q-0.046875 -0.21875 -0.046875 -0.4375q0 -0.609375 0.28125 -1.109375q0.28125 -0.5 0.671875 -0.9375q-0.171875 -0.21875 -0.3125 -0.421875q-0.125 -0.203125 -0.234375 -0.4375q-0.09375 -0.234375 -0.140625 -0.5q-0.046875 -0.28125 -0.046875 -0.640625q0 -0.71875 0.25 -1.3125q0.265625 -0.609375 0.75 -1.03125q0.484375 -0.4375 1.15625 -0.671875q0.671875 -0.234375 1.484375 -0.234375q0.34375 0 0.65625 0.046875q0.3125 0.046875 0.5625 0.125l3.3749847 0l0 1.3125l-1.4999847 0zm-5.59375 9.34375q0 0.65625 0.6875 0.953125q0.6875 0.3125 1.90625 0.3125q0.765625 0 1.28125 -0.140625q0.53125 -0.140625 0.84375 -0.375q0.328125 -0.21875 0.46875 -0.515625q0.140625 -0.28125 0.140625 -0.59375q0 -0.5625 -0.46875 -0.84375q-0.453125 -0.265625 -1.40625 -0.3125l-2.4375 -0.078125q-0.3125 0.203125 -0.515625 0.390625q-0.1875 0.203125 -0.296875 0.40625q-0.109375 0.203125 -0.15625 0.390625q-0.046875 0.203125 -0.046875 0.40625zm0.484375 -7.609375q0 0.4375 0.140625 0.8125q0.15625 0.375 0.421875 0.640625q0.28125 0.25 0.640625 0.390625q0.359375 0.140625 0.8125 0.140625q0.484375 0 0.859375 -0.15625q0.375 -0.171875 0.625 -0.4375q0.265625 -0.28125 0.390625 -0.640625q0.140625 -0.359375 0.140625 -0.75q0 -0.453125 -0.15625 -0.8125q-0.140625 -0.375 -0.421875 -0.640625q-0.265625 -0.265625 -0.640625 -0.40625q-0.359375 -0.140625 -0.796875 -0.140625q-0.484375 0 -0.859375 0.171875q-0.375 0.15625 -0.640625 0.4375q-0.25 0.265625 -0.390625 0.640625q-0.125 0.359375 -0.125 0.75zm16.538528 1.109375q0 0.34375 -0.015625 0.578125q-0.015625 0.234375 -0.03125 0.4375l-6.53125 0q0 1.4375 0.796875 2.203125q0.796875 0.765625 2.296875 0.765625q0.40625 0 0.8125 -0.03125q0.40625 -0.046875 0.78125 -0.09375q0.390625 -0.0625 0.734375 -0.125q0.34375 -0.078125 0.640625 -0.15625l0 1.328125q-0.65625 0.1875 -1.484375 0.296875q-0.828125 0.125 -1.71875 0.125q-1.203125 0 -2.0625 -0.328125q-0.859375 -0.328125 -1.421875 -0.9375q-0.546875 -0.625 -0.8125 -1.515625q-0.265625 -0.890625 -0.265625 -2.03125q0 -0.984375 0.28125 -1.859375q0.296875 -0.875 0.828125 -1.53125q0.546875 -0.671875 1.328125 -1.0625q0.796875 -0.390625 1.796875 -0.390625q0.984375 0 1.734375 0.3125q0.75 0.296875 1.265625 0.859375q0.515625 0.5625 0.78125 1.375q0.265625 0.796875 0.265625 1.78125zm-1.6875 -0.21875q0.03125 -0.625 -0.125 -1.140625q-0.140625 -0.515625 -0.453125 -0.890625q-0.3125 -0.375 -0.78125 -0.578125q-0.453125 -0.203125 -1.078125 -0.203125q-0.515625 0 -0.953125 0.203125q-0.4375 0.203125 -0.765625 0.578125q-0.3125 0.359375 -0.5 0.890625q-0.1875 0.515625 -0.234375 1.140625l4.890625 0zm21.811462 5.375l-1.4375 0l-0.0625 -1.5q-0.421875 0.484375 -0.796875 0.8125q-0.375 0.3125 -0.75 0.515625q-0.359375 0.1875 -0.734375 0.265625q-0.375 0.078125 -0.796875 0.078125q-1.4375 0 -2.171875 -0.84375q-0.734375 -0.84375 -0.734375 -2.5625l0 -6.078125l1.609375 0l0 5.953125q0 2.140625 1.625 2.140625q0.296875 0 0.578125 -0.078125q0.28125 -0.09375 0.59375 -0.3125q0.3125 -0.21875 0.65625 -0.578125q0.359375 -0.375 0.8125 -0.953125l0 -6.171875l1.609375 0l0 9.3125zm10.726044 -4.828125q0 1.25 -0.34375 2.1875q-0.34375 0.921875 -0.953125 1.53125q-0.609375 0.609375 -1.453125 0.921875q-0.828125 0.296875 -1.8125 0.296875q-0.4375 0 -0.890625 -0.046875q-0.4375 -0.046875 -0.890625 -0.15625l0 3.890625l-1.609375 0l0 -13.109375l1.4375 0l0.109375 1.5625q0.6875 -0.96875 1.46875 -1.34375q0.796875 -0.390625 1.71875 -0.390625q0.796875 0 1.390625 0.34375q0.609375 0.328125 1.015625 0.9375q0.40625 0.609375 0.609375 1.46875q0.203125 0.859375 0.203125 1.90625zm-1.640625 0.078125q0 -0.734375 -0.109375 -1.34375q-0.109375 -0.609375 -0.34375 -1.046875q-0.234375 -0.4375 -0.59375 -0.6875q-0.359375 -0.25 -0.859375 -0.25q-0.3125 0 -0.625 0.109375q-0.3125 0.09375 -0.65625 0.328125q-0.328125 0.21875 -0.703125 0.59375q-0.375 0.375 -0.8125 0.9375l0 4.515625q0.453125 0.1875 0.9375 0.296875q0.5 0.09375 0.96875 0.09375q1.3125 0 2.046875 -0.875q0.75 -0.890625 0.75 -2.671875zm11.319794 2.203125q0 0.5 -0.171875 0.890625q-0.15625 0.390625 -0.453125 0.6875q-0.28125 0.296875 -0.671875 0.515625q-0.375 0.21875 -0.8125 0.359375q-0.421875 0.125 -0.875 0.1875q-0.453125 0.078125 -0.890625 0.078125q-0.953125 0 -1.75 -0.09375q-0.78125 -0.078125 -1.546875 -0.265625l0 -1.484375q0.8125 0.234375 1.625 0.359375q0.8125 0.109375 1.609375 0.109375q1.15625 0 1.703125 -0.3125q0.5625 -0.3125 0.5625 -0.890625q0 -0.25 -0.09375 -0.453125q-0.078125 -0.203125 -0.3125 -0.375q-0.234375 -0.1875 -0.71875 -0.375q-0.484375 -0.203125 -1.328125 -0.453125q-0.640625 -0.1875 -1.171875 -0.421875q-0.53125 -0.234375 -0.921875 -0.5625q-0.390625 -0.328125 -0.609375 -0.765625q-0.21875 -0.4375 -0.21875 -1.03125q0 -0.390625 0.171875 -0.84375q0.1875 -0.46875 0.625 -0.859375q0.4375 -0.40625 1.171875 -0.671875q0.75 -0.265625 1.859375 -0.265625q0.546875 0 1.21875 0.0625q0.671875 0.0625 1.390625 0.203125l0 1.4375q-0.765625 -0.171875 -1.453125 -0.265625q-0.671875 -0.09375 -1.171875 -0.09375q-0.609375 0 -1.03125 0.09375q-0.40625 0.09375 -0.65625 0.265625q-0.25 0.15625 -0.375 0.375q-0.109375 0.21875 -0.109375 0.46875q0 0.25 0.09375 0.453125q0.109375 0.203125 0.375 0.390625q0.265625 0.1875 0.734375 0.390625q0.46875 0.1875 1.234375 0.40625q0.828125 0.234375 1.390625 0.5q0.5625 0.265625 0.90625 0.59375q0.359375 0.328125 0.515625 0.734375q0.15625 0.40625 0.15625 0.921875zm10.382294 2.421875q-0.546875 0.140625 -1.125 0.1875q-0.578125 0.0625 -1.1875 0.0625q-1.75 0 -2.625 -0.78125q-0.859375 -0.796875 -0.859375 -2.4375l0 -4.859375l-2.609375 0l0 -1.359375l2.609375 0l0 -2.5625l1.625 -0.421875l0 2.984375l4.171875 0l0 1.359375l-4.171875 0l0 4.71875q0 1.0 0.53125 1.5q0.53125 0.5 1.5625 0.5q0.453125 0 0.984375 -0.0625q0.53125 -0.078125 1.09375 -0.21875l0 1.390625zm3.1322937 -9.1875l1.484375 0l0.046875 1.71875q0.828125 -1.0 1.625 -1.4375q0.796875 -0.453125 1.625 -0.453125q1.4375 0 2.1875 0.9375q0.75 0.9375 0.6875 2.78125l-1.625 0q0.015625 -1.21875 -0.375 -1.765625q-0.375 -0.5625 -1.109375 -0.5625q-0.328125 0 -0.65625 0.125q-0.328125 0.109375 -0.6875 0.375q-0.34375 0.25 -0.734375 0.65625q-0.390625 0.390625 -0.828125 0.953125l0 5.984375l-1.640625 0l0 -9.3125zm17.757294 4.15625q0 0.34375 -0.015625 0.578125q-0.015625 0.234375 -0.03125 0.4375l-6.53125 0q0 1.4375 0.796875 2.203125q0.796875 0.765625 2.296875 0.765625q0.40625 0 0.8125 -0.03125q0.40625 -0.046875 0.78125 -0.09375q0.390625 -0.0625 0.734375 -0.125q0.34375 -0.078125 0.640625 -0.15625l0 1.328125q-0.65625 0.1875 -1.484375 0.296875q-0.828125 0.125 -1.71875 0.125q-1.203125 0 -2.0625 -0.328125q-0.859375 -0.328125 -1.421875 -0.9375q-0.546875 -0.625 -0.8125 -1.515625q-0.265625 -0.890625 -0.265625 -2.03125q0 -0.984375 0.28125 -1.859375q0.296875 -0.875 0.828125 -1.53125q0.546875 -0.671875 1.328125 -1.0625q0.796875 -0.390625 1.796875 -0.390625q0.984375 0 1.734375 0.3125q0.75 0.296875 1.265625 0.859375q0.515625 0.5625 0.78125 1.375q0.265625 0.796875 0.265625 1.78125zm-1.6875 -0.21875q0.03125 -0.625 -0.125 -1.140625q-0.140625 -0.515625 -0.453125 -0.890625q-0.3125 -0.375 -0.78125 -0.578125q-0.453125 -0.203125 -1.078125 -0.203125q-0.515625 0 -0.953125 0.203125q-0.4375 0.203125 -0.765625 0.578125q-0.3125 0.359375 -0.5 0.890625q-0.1875 0.515625 -0.234375 1.140625l4.890625 0zm10.054169 5.375l-0.03125 -1.25q-0.765625 0.75 -1.546875 1.09375q-0.78125 0.328125 -1.65625 0.328125q-0.796875 0 -1.359375 -0.203125q-0.5625 -0.203125 -0.9375 -0.5625q-0.359375 -0.359375 -0.53125 -0.84375q-0.171875 -0.484375 -0.171875 -1.046875q0 -1.40625 1.046875 -2.1875q1.046875 -0.796875 3.078125 -0.796875l1.9375 0l0 -0.828125q0 -0.8125 -0.53125 -1.3125q-0.53125 -0.5 -1.609375 -0.5q-0.796875 0 -1.5625 0.1875q-0.765625 0.171875 -1.578125 0.484375l0 -1.453125q0.296875 -0.109375 0.671875 -0.21875q0.390625 -0.109375 0.796875 -0.1875q0.421875 -0.078125 0.875 -0.125q0.453125 -0.0625 0.921875 -0.0625q0.84375 0 1.515625 0.1875q0.6875 0.1875 1.15625 0.578125q0.46875 0.375 0.71875 0.953125q0.25 0.5625 0.25 1.34375l0 6.421875l-1.453125 0zm-0.171875 -4.234375l-2.0625 0q-0.59375 0 -1.03125 0.125q-0.4375 0.109375 -0.71875 0.34375q-0.28125 0.21875 -0.421875 0.53125q-0.125 0.296875 -0.125 0.6875q0 0.28125 0.078125 0.53125q0.09375 0.234375 0.28125 0.421875q0.1875 0.1875 0.484375 0.3125q0.296875 0.109375 0.71875 0.109375q0.5625 0 1.28125 -0.34375q0.71875 -0.34375 1.515625 -1.078125l0 -1.640625zm11.085419 4.234375l0 -6.6875q0 -0.4375 -0.03125 -0.71875q-0.03125 -0.28125 -0.109375 -0.4375q-0.0625 -0.15625 -0.171875 -0.21875q-0.109375 -0.078125 -0.265625 -0.078125q-0.1875 0 -0.34375 0.125q-0.15625 0.109375 -0.34375 0.359375q-0.171875 0.25 -0.390625 0.65625q-0.21875 0.40625 -0.515625 1.015625l0 5.984375l-1.46875 0l0 -6.515625q0 -0.5 -0.03125 -0.8125q-0.03125 -0.328125 -0.109375 -0.5q-0.0625 -0.171875 -0.1875 -0.234375q-0.109375 -0.078125 -0.265625 -0.078125q-0.15625 0 -0.3125 0.09375q-0.140625 0.09375 -0.328125 0.34375q-0.171875 0.234375 -0.40625 0.65625q-0.21875 0.40625 -0.53125 1.0625l0 5.984375l-1.484375 0l0 -9.3125l1.234375 0l0.078125 1.765625q0.25 -0.53125 0.46875 -0.890625q0.234375 -0.375 0.46875 -0.59375q0.25 -0.234375 0.515625 -0.34375q0.28125 -0.109375 0.609375 -0.109375q0.75 0 1.140625 0.5q0.390625 0.484375 0.390625 1.515625q0.21875 -0.484375 0.4375 -0.859375q0.21875 -0.375 0.453125 -0.625q0.25 -0.265625 0.546875 -0.390625q0.296875 -0.140625 0.6875 -0.140625q1.75 0 1.75 2.703125l0 6.78125l-1.484375 0zm11.101044 -13.109375l-6.359375 15.109375l-1.546875 0l6.375 -15.109375l1.53125 0zm9.413544 13.109375l0 -6.6875q0 -0.4375 -0.03125 -0.71875q-0.03125 -0.28125 -0.109375 -0.4375q-0.0625 -0.15625 -0.171875 -0.21875q-0.109375 -0.078125 -0.265625 -0.078125q-0.1875 0 -0.34375 0.125q-0.15625 0.109375 -0.34375 0.359375q-0.171875 0.25 -0.390625 0.65625q-0.21875 0.40625 -0.515625 1.015625l0 5.984375l-1.46875 0l0 -6.515625q0 -0.5 -0.03125 -0.8125q-0.03125 -0.328125 -0.109375 -0.5q-0.0625 -0.171875 -0.1875 -0.234375q-0.109375 -0.078125 -0.265625 -0.078125q-0.15625 0 -0.3125 0.09375q-0.140625 0.09375 -0.328125 0.34375q-0.171875 0.234375 -0.40625 0.65625q-0.21875 0.40625 -0.53125 1.0625l0 5.984375l-1.484375 0l0 -9.3125l1.234375 0l0.078125 1.765625q0.25 -0.53125 0.46875 -0.890625q0.234375 -0.375 0.46875 -0.59375q0.25 -0.234375 0.515625 -0.34375q0.28125 -0.109375 0.609375 -0.109375q0.75 0 1.140625 0.5q0.390625 0.484375 0.390625 1.515625q0.21875 -0.484375 0.4375 -0.859375q0.21875 -0.375 0.453125 -0.625q0.25 -0.265625 0.546875 -0.390625q0.296875 -0.140625 0.6875 -0.140625q1.75 0 1.75 2.703125l0 6.78125l-1.484375 0zm9.601044 0l-0.03125 -1.25q-0.765625 0.75 -1.546875 1.09375q-0.78125 0.328125 -1.65625 0.328125q-0.796875 0 -1.359375 -0.203125q-0.5625 -0.203125 -0.9375 -0.5625q-0.359375 -0.359375 -0.53125 -0.84375q-0.171875 -0.484375 -0.171875 -1.046875q0 -1.40625 1.046875 -2.1875q1.046875 -0.796875 3.078125 -0.796875l1.9375 0l0 -0.828125q0 -0.8125 -0.53125 -1.3125q-0.53125 -0.5 -1.609375 -0.5q-0.796875 0 -1.5625 0.1875q-0.765625 0.171875 -1.578125 0.484375l0 -1.453125q0.296875 -0.109375 0.671875 -0.21875q0.390625 -0.109375 0.796875 -0.1875q0.421875 -0.078125 0.875 -0.125q0.453125 -0.0625 0.921875 -0.0625q0.84375 0 1.515625 0.1875q0.6875 0.1875 1.15625 0.578125q0.46875 0.375 0.71875 0.953125q0.25 0.5625 0.25 1.34375l0 6.421875l-1.453125 0zm-0.171875 -4.234375l-2.0625 0q-0.59375 0 -1.03125 0.125q-0.4375 0.109375 -0.71875 0.34375q-0.28125 0.21875 -0.421875 0.53125q-0.125 0.296875 -0.125 0.6875q0 0.28125 0.078125 0.53125q0.09375 0.234375 0.28125 0.421875q0.1875 0.1875 0.484375 0.3125q0.296875 0.109375 0.71875 0.109375q0.5625 0 1.28125 -0.34375q0.71875 -0.34375 1.515625 -1.078125l0 -1.640625zm11.819794 1.6875q0 0.5 -0.171875 0.890625q-0.15625 0.390625 -0.453125 0.6875q-0.28125 0.296875 -0.671875 0.515625q-0.375 0.21875 -0.8125 0.359375q-0.421875 0.125 -0.875 0.1875q-0.453125 0.078125 -0.890625 0.078125q-0.953125 0 -1.75 -0.09375q-0.78125 -0.078125 -1.546875 -0.265625l0 -1.484375q0.8125 0.234375 1.625 0.359375q0.8125 0.109375 1.609375 0.109375q1.15625 0 1.703125 -0.3125q0.5625 -0.3125 0.5625 -0.890625q0 -0.25 -0.09375 -0.453125q-0.078125 -0.203125 -0.3125 -0.375q-0.234375 -0.1875 -0.71875 -0.375q-0.484375 -0.203125 -1.328125 -0.453125q-0.640625 -0.1875 -1.171875 -0.421875q-0.53125 -0.234375 -0.921875 -0.5625q-0.390625 -0.328125 -0.609375 -0.765625q-0.21875 -0.4375 -0.21875 -1.03125q0 -0.390625 0.171875 -0.84375q0.1875 -0.46875 0.625 -0.859375q0.4375 -0.40625 1.171875 -0.671875q0.75 -0.265625 1.859375 -0.265625q0.546875 0 1.21875 0.0625q0.671875 0.0625 1.390625 0.203125l0 1.4375q-0.765625 -0.171875 -1.453125 -0.265625q-0.671875 -0.09375 -1.171875 -0.09375q-0.609375 0 -1.03125 0.09375q-0.40625 0.09375 -0.65625 0.265625q-0.25 0.15625 -0.375 0.375q-0.109375 0.21875 -0.109375 0.46875q0 0.25 0.09375 0.453125q0.109375 0.203125 0.375 0.390625q0.265625 0.1875 0.734375 0.390625q0.46875 0.1875 1.234375 0.40625q0.828125 0.234375 1.390625 0.5q0.5625 0.265625 0.90625 0.59375q0.359375 0.328125 0.515625 0.734375q0.15625 0.40625 0.15625 0.921875zm10.382294 2.421875q-0.546875 0.140625 -1.125 0.1875q-0.578125 0.0625 -1.1875 0.0625q-1.75 0 -2.625 -0.78125q-0.859375 -0.796875 -0.859375 -2.4375l0 -4.859375l-2.609375 0l0 -1.359375l2.609375 0l0 -2.5625l1.625 -0.421875l0 2.984375l4.171875 0l0 1.359375l-4.171875 0l0 4.71875q0 1.0 0.53125 1.5q0.53125 0.5 1.5625 0.5q0.453125 0 0.984375 -0.0625q0.53125 -0.078125 1.09375 -0.21875l0 1.390625zm10.632294 -5.03125q0 0.34375 -0.015625 0.578125q-0.015625 0.234375 -0.03125 0.4375l-6.53125 0q0 1.4375 0.796875 2.203125q0.796875 0.765625 2.296875 0.765625q0.40625 0 0.8125 -0.03125q0.40625 -0.046875 0.78125 -0.09375q0.390625 -0.0625 0.734375 -0.125q0.34375 -0.078125 0.640625 -0.15625l0 1.328125q-0.65625 0.1875 -1.484375 0.296875q-0.828125 0.125 -1.71875 0.125q-1.203125 0 -2.0625 -0.328125q-0.859375 -0.328125 -1.421875 -0.9375q-0.546875 -0.625 -0.8125 -1.515625q-0.265625 -0.890625 -0.265625 -2.03125q0 -0.984375 0.28125 -1.859375q0.296875 -0.875 0.828125 -1.53125q0.546875 -0.671875 1.328125 -1.0625q0.796875 -0.390625 1.796875 -0.390625q0.984375 0 1.734375 0.3125q0.75 0.296875 1.265625 0.859375q0.515625 0.5625 0.78125 1.375q0.265625 0.796875 0.265625 1.78125zm-1.6875 -0.21875q0.03125 -0.625 -0.125 -1.140625q-0.140625 -0.515625 -0.453125 -0.890625q-0.3125 -0.375 -0.78125 -0.578125q-0.453125 -0.203125 -1.078125 -0.203125q-0.515625 0 -0.953125 0.203125q-0.4375 0.203125 -0.765625 0.578125q-0.3125 0.359375 -0.5 0.890625q-0.1875 0.515625 -0.234375 1.140625l4.890625 0zm4.4447937 -3.9375l1.484375 0l0.046875 1.71875q0.828125 -1.0 1.625 -1.4375q0.796875 -0.453125 1.625 -0.453125q1.4375 0 2.1875 0.9375q0.75 0.9375 0.6875 2.78125l-1.625 0q0.015625 -1.21875 -0.375 -1.765625q-0.375 -0.5625 -1.109375 -0.5625q-0.328125 0 -0.65625 0.125q-0.328125 0.109375 -0.6875 0.375q-0.34375 0.25 -0.734375 0.65625q-0.390625 0.390625 -0.828125 0.953125l0 5.984375l-1.640625 0l0 -9.3125z" fill-rule="nonzero"></path><path fill="#000000" fill-opacity="0.0" d="m220.57217 5.8320208l145.6063 0l0 63.05512l-145.6063 0z" fill-rule="evenodd"></path><path fill="#000000" d="m272.17148 27.423895l0 -1.609375l5.765625 0l0 5.046875q-1.328125 1.0625 -2.75 1.5937481q-1.40625 0.53125 -2.890625 0.53125q-2.0 0 -3.640625 -0.859375q-1.625 -0.8593731 -2.46875 -2.484373q-0.828125 -1.625 -0.828125 -3.625q0 -1.984375 0.828125 -3.703125q0.828125 -1.71875 2.390625 -2.546875q1.5625 -0.84375 3.59375 -0.84375q1.46875 0 2.65625 0.484375q1.203125 0.46875 1.875 1.328125q0.671875 0.84375 1.03125 2.21875l-1.625 0.4375q-0.3125 -1.03125 -0.765625 -1.625q-0.453125 -0.59375 -1.296875 -0.953125q-0.84375 -0.359375 -1.875 -0.359375q-1.234375 0 -2.140625 0.375q-0.890625 0.375 -1.453125 1.0q-0.546875 0.609375 -0.84375 1.34375q-0.53125 1.25 -0.53125 2.734375q0 1.8125 0.625 3.046875q0.640625 1.21875 1.828125 1.8125q1.203125 0.59375 2.546875 0.59375q1.171875 0 2.28125 -0.453125q1.109375 -0.453125 1.6875 -0.953125l0 -2.53125l-4.0 0zm7.948944 -6.359375l0 -1.90625l1.671875 0l0 1.90625l-1.671875 0zm0 11.687498l0 -9.859373l1.671875 0l0 9.859373l-1.671875 0zm7.785431 -1.4999981l0.234375 1.4843731q-0.703125 0.140625 -1.265625 0.140625q-0.90625 0 -1.40625 -0.28125q-0.5 -0.296875 -0.703125 -0.7499981q-0.203125 -0.46875 -0.203125 -1.984375l0 -5.65625l-1.234375 0l0 -1.3125l1.234375 0l0 -2.4375l1.65625 -1.0l0 3.4375l1.6875 0l0 1.3125l-1.6875 0l0 5.75q0 0.71875 0.078125 0.921875q0.09375 0.203125 0.296875 0.328125q0.203125 0.125 0.578125 0.125q0.265625 0 0.734375 -0.078125zm1.7926941 1.4999981l0 -13.593748l1.8125 0l0 5.578125l7.0625 0l0 -5.578125l1.796875 0l0 13.593748l-1.796875 0l0 -6.406248l-7.0625 0l0 6.406248l-1.8125 0zm19.66043 0l0 -1.4531231q-1.140625 1.6718731 -3.125 1.6718731q-0.859375 0 -1.625 -0.328125q-0.75 -0.34375 -1.125 -0.8437481q-0.359375 -0.5 -0.515625 -1.234375q-0.09375 -0.5 -0.09375 -1.5625l0 -6.109375l1.671875 0l0 5.46875q0 1.3125 0.09375 1.765625q0.15625 0.65625 0.671875 1.03125q0.515625 0.375 1.265625 0.375q0.75 0 1.40625 -0.375q0.65625 -0.390625 0.921875 -1.046875q0.28125 -0.671875 0.28125 -1.9375l0 -5.28125l1.671875 0l0 9.859373l-1.5 0zm5.4694824 0l-1.546875 0l0 -13.593748l1.65625 0l0 4.84375q1.0625 -1.328125 2.703125 -1.328125q0.90625 0 1.71875 0.375q0.8125 0.359375 1.328125 1.03125q0.53125 0.65625 0.828125 1.59375q0.296875 0.9375 0.296875 2.0q0 2.53125 -1.25 3.921875q-1.25 1.3749981 -3.0 1.3749981q-1.75 0 -2.734375 -1.4531231l0 1.2343731zm-0.015625 -4.999998q0 1.765625 0.46875 2.5625q0.796875 1.28125 2.140625 1.28125q1.09375 0 1.890625 -0.9375q0.796875 -0.953125 0.796875 -2.84375q0 -1.921875 -0.765625 -2.84375q-0.765625 -0.921875 -1.84375 -0.921875q-1.09375 0 -1.890625 0.953125q-0.796875 0.953125 -0.796875 2.75z" fill-rule="nonzero"></path></g></svg>

